<?xml version="1.0" encoding="UTF-8"?>
<svg width="12px" height="13px" viewBox="0 0 12 13" version="1.1" xmlns="http://www.w3.org/2000/svg" xmlns:xlink="http://www.w3.org/1999/xlink">
    <!-- Generator: Sketch 46.2 (44496) - http://www.bohemiancoding.com/sketch -->
    <title>Page-1-Copy-2</title>
    <desc>Created with Sketch.</desc>
    <defs></defs>
    <g id="Page-1" stroke="none" stroke-width="1" fill="none" fill-rule="evenodd">
        <g id="backtotop-arrow-iconset" transform="translate(0.000000, -17.000000)" fill-rule="nonzero" fill="#F27A1A">
            <path d="M6.29707117,18.1678592 C6.059195,17.9440469 5.66328919,17.9440469 5.41709567,18.1678592 C5.17921949,18.3841103 5.17921949,18.7440247 5.41709567,18.9597716 L9.87907605,23.0161174 L0.616038287,23.0161174 C0.272809027,23.0166215 -1.25000001e-08,23.2646297 -1.25000001e-08,23.5766563 C-1.25000001e-08,23.8886829 0.272809027,24.1447565 0.616038287,24.1447565 L9.87907605,24.1447565 L5.41709567,28.193541 C5.17921949,28.4173533 5.17921949,28.7777718 5.41709567,28.9935188 C5.66328919,29.2173311 6.05974949,29.2173311 6.29707117,28.9935188 L11.8153549,23.9768972 C12.0615484,23.7606462 12.0615484,23.4007318 11.8153549,23.1849848 L6.29707117,18.1678592 Z" id="Page-1-Copy-2" transform="translate(6.000000, 23.580689) rotate(-90.000000) translate(-6.000000, -23.580689) "></path>
        </g>
    </g>
</svg>