<?xml version="1.0" encoding="UTF-8"?>
<svg width="12px" height="13px" viewBox="0 0 12 13" version="1.1" xmlns="http://www.w3.org/2000/svg" xmlns:xlink="http://www.w3.org/1999/xlink">
    <!-- Generator: Sketch 46.2 (44496) - http://www.bohemiancoding.com/sketch -->
    <title>Page-1-Copy</title>
    <desc>Created with Sketch.</desc>
    <defs></defs>
    <g id="Page-1" stroke="none" stroke-width="1" fill="none" fill-rule="evenodd">
        <g id="backtotop-arrow-iconset" fill-rule="nonzero" fill="#1E201D">
            <path d="M6.29707118,1.1678592 C6.05919501,0.944046901 5.6632892,0.944046901 5.41709568,1.1678592 C5.1792195,1.38411027 5.1792195,1.74402464 5.41709568,1.95977162 L9.87907606,6.01611742 L0.6160383,6.01611742 C0.27280904,6.0166215 -2.49998244e-10,6.26462972 -2.49998244e-10,6.57665632 C-2.49998244e-10,6.88868292 0.27280904,7.14475645 0.6160383,7.14475645 L9.87907606,7.14475645 L5.41709568,11.193541 C5.1792195,11.4173533 5.1792195,11.7777718 5.41709568,11.9935188 C5.6632892,12.2173311 6.0597495,12.2173311 6.29707118,11.9935188 L11.8153549,6.97689723 C12.0615484,6.76064616 12.0615484,6.40073179 11.8153549,6.18498481 L6.29707118,1.1678592 Z" id="Page-1-Copy" transform="translate(6.000000, 6.580689) rotate(-90.000000) translate(-6.000000, -6.580689) "></path>
        </g>
    </g>
</svg>