<?xml version="1.0" encoding="UTF-8"?>
<svg width="20px" height="23px" viewBox="0 0 20 23" version="1.1" xmlns="http://www.w3.org/2000/svg" xmlns:xlink="http://www.w3.org/1999/xlink">
    <!-- Generator: Sketch 46.2 (44496) - http://www.bohemiancoding.com/sketch -->
    <title>sepet</title>
    <desc>Created with Sketch.</desc>
    <defs></defs>
    <g id="Symbols" stroke="none" stroke-width="1" fill="none" fill-rule="evenodd">
        <g id="new-header" transform="translate(-1045.000000, -7.000000)">
            <g id="Group" transform="translate(889.000000, 0.000000)">
                <g id="sepet" transform="translate(156.000000, 7.000000)">
                    <polygon id="Path-3" fill="#F27A1A" points="3.29418945 6.66674805 2.65063477 7.51391602 1.87451172 15.9746094 1.87451172 20.2751465 2.58435059 21.2875977 16.9367676 21.2875977 17.9143066 21.2875977 18.3168945 20.2751465 18.3168945 18.6074219 17.5275879 7.51391602 16.9367676 6.66674805 16.048584 6.66674805"></polygon>
                    <path d="M17.0625004,22 L2.93749958,22 C2.43319607,22 1.94990521,21.8040283 1.58968842,21.4562159 C1.56567397,21.4330284 1.54240997,21.409093 1.51914597,21.3844095 C1.15292557,20.9917181 0.966063108,20.4643897 1.00508659,19.9295814 L1.88311502,7.80102722 C1.95665928,6.79124935 2.80016693,6.0088585 3.815528,6.0088585 L14.1149547,6 L14.1149547,7.003794 L3.74348464,7.0126525 C3.29696591,7.0126525 2.92549235,7.35747294 2.89322293,7.8017752 L2.01594496,19.9191096 C1.99568276,20.1973595 2.09249103,20.4711215 2.28310574,20.675321 C2.47372046,20.8795206 2.74088125,20.995458 3.02079971,20.995458 L16.9792003,20.995458 C17.2583683,20.995458 17.5262795,20.8795206 17.7168943,20.675321 C17.907509,20.4711215 18.0043172,20.1973595 17.984055,19.9191096 L17.1067771,7.8017752 C17.0745076,7.35747294 16.7030341,7.0126525 16.2565154,7.0126525 L14.1149547,7.0126525 L14.1149547,6.0088585 L16.1837215,6.0088585 C16.7232963,6.0088585 17.2148421,6.22951367 17.5675544,6.5885458 C17.8789918,6.90419488 18.0823642,7.3275536 18.116885,7.80102722 L18.9949134,19.9295814 C19.0339369,20.4643897 18.8470744,20.9917181 18.480854,21.3844095 C18.1146336,21.7771009 17.6005743,22 17.0625004,22 Z" id="Fill-4" fill="#F2F2F0"></path>
                    <path d="M17.0625004,22 L2.93749958,22 C2.43319607,22 1.94990521,21.8040283 1.58968842,21.4562159 C1.56567397,21.4330284 1.54240997,21.409093 1.51914597,21.3844095 C1.15292557,20.9917181 0.966063108,20.4643897 1.00508659,19.9295814 L1.88311502,7.80102722 C1.95665928,6.79124935 2.80016693,6.0088585 3.815528,6.0088585 L14.1149547,6 L14.1149547,7.003794 L14.1149547,6.0088585 L16.1837215,6.0088585 C16.7232963,6.0088585 17.2148421,6.22951367 17.5675544,6.5885458 C17.8789918,6.90419488 18.0823642,7.3275536 18.116885,7.80102722 L18.9949134,19.9295814 C19.0339369,20.4643897 18.8470744,20.9917181 18.480854,21.3844095 C18.1146336,21.7771009 17.6005743,22 17.0625004,22 Z" id="Fill-4"></path>
                    <path d="M6.00017441,8.99999999 C6.00665366,8.65030056 6.19311276,8.34629316 6.46835618,8.17785982 L6.46835618,4.60198002 C6.46835618,2.61581347 8.052634,1 10.0000368,1 C11.9474395,1 13.5317174,2.61581347 13.5317174,4.60198002 L13.5317174,8.17785982 C13.8069608,8.34629316 13.9933489,8.65030056 13.9998257,8.99999999 L12.0761542,9 C12.0826331,8.65030056 12.2690225,8.34629316 12.5443381,8.17785982 L12.5443381,4.60198002 C12.5443381,3.17104309 11.4029727,2.00695839 10.0000368,2.00695839 C8.59710081,2.00695839 7.45573541,3.17104309 7.45573541,4.60198002 L7.45573541,8.17785982 C7.73097883,8.34629316 7.91743794,8.65030057 7.92391718,9 L6.00017232,9 Z" id="Combined-Shape" stroke="#F27A1A" stroke-width="0.15" fill="#F27A1A"></path>
                </g>
            </g>
        </g>
    </g>
</svg>