<?xml version="1.0" encoding="UTF-8"?>
<svg width="20px" height="23px" viewBox="0 0 20 23" version="1.1" xmlns="http://www.w3.org/2000/svg" xmlns:xlink="http://www.w3.org/1999/xlink">
    <!-- Generator: Sketch 46.2 (44496) - http://www.bohemiancoding.com/sketch -->
    <title>sepet</title>
    <desc>Created with Sketch.</desc>
    <defs></defs>
    <g id="Symbols" stroke="none" stroke-width="1" fill="none" fill-rule="evenodd">
        <g id="new-header" transform="translate(-1045.000000, -7.000000)">
            <g id="Group" transform="translate(889.000000, 0.000000)">
                <g id="Group-13"></g>
                <g id="sepet" transform="translate(157.000000, 8.000000)" stroke="#1B1B1B" fill="#1B1B1B">
                    <polygon id="Fill-3" stroke-width="0.25" points="7 5.99107949 11 5.99107949 11 5 7 5"></polygon>
                    <path d="M16.0625004,21 L1.93749958,21 C1.43319607,21 0.949905214,20.8040283 0.589688424,20.4562159 C0.565673972,20.4330284 0.542409971,20.409093 0.51914597,20.3844095 C0.152925568,19.9917181 -0.0339368918,19.4643897 0.00508659368,18.9295814 L0.883115017,6.80102722 C0.956659278,5.79124935 1.80016693,5.0088585 2.815528,5.0088585 L4.87819726,5 L4.87819726,6.003794 L2.74348464,6.0126525 C2.29696591,6.0126525 1.92549235,6.35747294 1.89322293,6.8017752 L1.01594496,18.9191096 C0.995682764,19.1973595 1.09249103,19.4711215 1.28310574,19.675321 C1.47372046,19.8795206 1.74088125,19.995458 2.02079971,19.995458 L15.9792003,19.995458 C16.2583683,19.995458 16.5262795,19.8795206 16.7168943,19.675321 C16.907509,19.4711215 17.0043172,19.1973595 16.984055,18.9191096 L16.1067771,6.8017752 C16.0745076,6.35747294 15.7030341,6.0126525 15.2565154,6.0126525 L13.1149547,6.0126525 L13.1149547,5.0088585 L15.1837215,5.0088585 C15.7232963,5.0088585 16.2148421,5.22951367 16.5675544,5.5885458 C16.8789918,5.90419488 17.0823642,6.3275536 17.116885,6.80102722 L17.9949134,18.9295814 C18.0339369,19.4643897 17.8470744,19.9917181 17.480854,20.3844095 C17.1146336,20.7771009 16.6005743,21 16.0625004,21 Z" id="Fill-4" stroke-width="0.15"></path>
                    <path d="M6.92409159,8.01884182 C6.92409159,7.66123884 6.7359108,7.34931124 6.45573541,7.17785982 L6.45573541,3.60198002 C6.45573541,2.17104309 7.59710081,1.00695839 9.00003677,1.00695839 C10.4029727,1.00695839 11.5443381,2.17104309 11.5443381,3.60198002 L11.5443381,7.17785982 C11.2640892,7.34931124 11.0759819,7.66123884 11.0759819,8.01884182 C11.0759819,8.56072134 11.5066873,9 12.037991,9 C12.5692947,9 13,8.56072134 13,8.01884182 C13,7.66123884 12.8118927,7.34931124 12.5317174,7.17785982 L12.5317174,3.60198002 C12.5317174,1.61581347 10.9474395,0 9.00003677,0 C7.052634,0 5.46835618,1.61581347 5.46835618,3.60198002 L5.46835618,7.17785982 C5.18818079,7.34931124 5,7.66123884 5,8.01884182 C5,8.56072134 5.43070531,9 5.96200903,9 C6.49331274,9 6.92409159,8.56072134 6.92409159,8.01884182 Z" id="Fill-5" stroke-width="0.15"></path>
                </g>
            </g>
        </g>
    </g>
</svg>