<?xml version="1.0" encoding="UTF-8"?>
<svg width="33px" height="15px" viewBox="0 0 33 15" version="1.1" xmlns="http://www.w3.org/2000/svg" xmlns:xlink="http://www.w3.org/1999/xlink">
    <!-- Generator: Sketch 40.3 (33839) - http://www.bohemiancoding.com/sketch -->
    <title>Page 1</title>
    <desc>Created with Sketch.</desc>
    <defs>
        <polygon id="path-1" points="13.9165109 14.6757812 27.679125 14.6757812 27.679125 0.303675781 13.9165109 0.303675781 0.153896728 0.303675781 0.153896728 14.6757812 13.9165109 14.6757812"></polygon>
    </defs>
    <g id="V1" stroke="none" stroke-width="1" fill="none" fill-rule="evenodd">
        <g id="1_4-Hızlı-Teslimat" transform="translate(-702.000000, -340.000000)">
            <g id="Page-1" transform="translate(702.000000, 340.000000)">
                <path d="M4.08375,5.41160026 C4.08375,5.67952734 4.3005,5.89702995 4.5675,5.89702995 L15.0585,5.89702995 C15.325875,5.89702995 15.54225,5.67952734 15.54225,5.41160026 C15.54225,5.14367318 15.325875,4.92617057 15.0585,4.92617057 L4.5675,4.92617057 C4.3005,4.92617057 4.08375,5.14367318 4.08375,5.41160026" id="Fill-1" fill="#2EB455"></path>
                <path d="M13.674,3.07815104 C13.674,2.81022396 13.457625,2.59272135 13.19025,2.59272135 L2.69925,2.59272135 C2.43225,2.59272135 2.2155,2.81022396 2.2155,3.07815104 C2.2155,3.34607812 2.43225,3.56358073 2.69925,3.56358073 L13.19025,3.56358073 C13.457625,3.56358073 13.674,3.34607812 13.674,3.07815104" id="Fill-3" fill="#2EB455"></path>
                <path d="M1.50225,2.59272135 L0.48375,2.59272135 C0.21675,2.59272135 0,2.81022396 0,3.07815104 C0,3.34607812 0.21675,3.56358073 0.48375,3.56358073 L1.50225,3.56358073 C1.76925,3.56358073 1.986,3.34607812 1.986,3.07815104 C1.986,2.81022396 1.769625,2.59272135 1.50225,2.59272135" id="Fill-5" fill="#2EB455"></path>
                <path d="M11.454375,8.23085547 C11.721375,8.23085547 11.93775,8.01335286 11.93775,7.74542578 C11.93775,7.4774987 11.721375,7.25999609 11.454375,7.25999609 L5.6745,7.25999609 C5.4075,7.25999609 5.19075,7.4774987 5.19075,7.74542578 C5.19075,8.01335286 5.4075,8.23085547 5.6745,8.23085547 L11.454375,8.23085547 Z" id="Fill-7" fill="#2EB455"></path>
                <path d="M4.336875,7.25999609 L3.318375,7.25999609 C3.051375,7.25999609 2.834625,7.4774987 2.834625,7.74542578 C2.834625,8.01335286 3.051375,8.23085547 3.318375,8.23085547 L4.336875,8.23085547 C4.603875,8.23085547 4.820625,8.01335286 4.820625,7.74542578 C4.820625,7.4774987 4.603875,7.25999609 4.336875,7.25999609" id="Fill-9" fill="#2EB455"></path>
                <g id="Group-13" transform="translate(5.250000, 0.072626)">
                    <mask id="mask-2" fill="white">
                        <use xlink:href="#path-1"></use>
                    </mask>
                    <g id="Clip-12"></g>
                    <path d="M26.569125,9.43803255 C26.49675,9.73192448 26.07075,11.4207682 26.07075,11.4207682 C26.067,11.4218971 26.023875,12.013444 25.490625,12.013444 L24.286875,12.013444 C24.27675,11.9400651 24.263625,11.8666862 24.246375,11.7940599 C24.10875,11.2141784 23.756625,10.7392852 23.25525,10.4566823 C22.954125,10.2869701 22.610625,10.1970339 22.26225,10.1970339 C21.45975,10.1970339 20.704875,10.6546172 20.292375,11.3914167 C20.177625,11.5965013 20.095125,11.8132513 20.0445,12.0348932 L17.355,12.0348932 C17.355,12.0348932 16.911,12.1033802 16.992,11.6725143 C16.992,11.672138 16.989375,11.6717617 16.989375,11.6713854 L18.898875,3.3769349 C18.9015,3.37618229 18.906375,3.37505339 18.906375,3.37430078 C18.906375,3.18577344 19.05825,3.00853516 19.246125,3.00853516 C19.25025,3.00853516 19.53825,3.00853516 20.496375,3.00891146 L20.496375,3.00928776 L21.798,3.00928776 C22.01625,3.00702995 22.129125,3.13610156 22.18425,3.2339401 L22.22325,3.32086589 C22.22775,3.33366016 22.23,3.3415625 22.230375,3.3419388 L22.23675,3.35059375 L24.524625,7.49894792 C24.524625,7.49894792 24.782625,8.04571484 25.261125,8.27375391 C25.407,8.34336979 26.263125,8.76633333 26.263125,8.76633333 C26.757,8.97028906 26.569125,9.43803255 26.569125,9.43803255 M23.17125,13.0147839 C22.927125,13.450918 22.489875,13.7222318 22.0305,13.7222318 C21.84225,13.7222318 21.664875,13.6759466 21.50325,13.5848815 C21.235875,13.4339844 21.046875,13.1762174 20.9715,12.8582422 C20.89275,12.5267201 20.946,12.1718672 21.121125,11.8587839 C21.36525,11.4226497 21.8025,11.1513359 22.261875,11.1513359 C22.450125,11.1513359 22.6275,11.1976211 22.789125,11.2886862 C23.0565,11.4395833 23.2455,11.6973503 23.320875,12.0153255 C23.399625,12.347224 23.346375,12.7020768 23.17125,13.0147839 M5.593125,13.0147839 C5.349,13.450918 4.91175,13.7222318 4.452375,13.7222318 C4.264125,13.7222318 4.08675,13.6759466 3.925125,13.5848815 C3.65775,13.4339844 3.46875,13.1762174 3.393375,12.8582422 C3.314625,12.5267201 3.367875,12.1718672 3.543,11.8587839 C3.787125,11.4226497 4.224375,11.1513359 4.68375,11.1513359 C4.872,11.1513359 5.049375,11.1976211 5.211,11.2886862 C5.478375,11.4395833 5.667375,11.6973503 5.74275,12.0153255 C5.821125,12.347224 5.76825,12.7020768 5.593125,13.0147839 M26.733375,7.89030208 L26.59875,7.8210625 C26.598,7.81955729 26.59725,7.81842839 26.5965,7.81767578 L26.511375,7.77628255 L26.419125,7.72886849 C26.41875,7.72886849 26.419125,7.7299974 26.4195,7.73075 C26.282625,7.65548958 25.878,7.42519271 25.713375,7.24042839 C25.603125,7.116625 25.528125,6.96384635 25.482,6.85095573 L25.463625,6.80542318 C25.4385,6.7380651 23.299125,3.2866224 23.299125,3.2866224 C23.28825,3.1786237 23.237625,3.06121745 23.16075,2.9441875 C22.738125,2.1490612 22.1445,2.0598776 21.657375,2.0598776 L19.332375,2.0598776 C19.331625,2.0598776 19.329375,2.0587487 19.329,2.0587487 L19.1655,2.0587487 L19.315875,1.19852214 C19.315875,0.708576823 18.918375,0.310072917 18.4305,0.310072917 L18.2625,0.310072917 C18.257625,0.310072917 18.253125,0.3070625 18.24825,0.3070625 L16.50375,0.3070625 L16.492875,0.303675781 C16.48725,0.303675781 16.482,0.305557292 16.47675,0.3070625 L0.8295,0.3070625 C0.5625,0.3070625 0.34575,0.524565104 0.34575,0.792492187 C0.34575,1.06041927 0.5625,1.27792187 0.8295,1.27792187 L16.471125,1.27792187 C16.479,1.27905078 16.485,1.28356641 16.492875,1.28356641 L18.046125,1.28356641 C18.206625,1.31103646 18.331125,1.445 18.331125,1.61358333 C18.331125,1.61433594 18.336,1.61508854 18.337875,1.61584115 L18.1875,2.25593099 L16.004625,11.7402487 C15.993,11.9152292 15.85275,12.0537083 15.6765,12.0578477 L15.661125,12.0578477 C15.65625,12.0567187 15.651375,12.0552135 15.646125,12.0548372 L15.646125,12.0578477 L6.68325,12.0578477 C6.673125,11.9671589 6.68925,11.8832435 6.667875,11.7936836 C6.53025,11.2138021 6.178125,10.7389089 5.67675,10.456306 C5.375625,10.2865937 5.032125,10.1966576 4.68375,10.1966576 C3.88125,10.1966576 3.126375,10.6542409 2.713875,11.3910404 C2.598,11.5980065 2.51475,11.8173906 2.464125,12.0416667 L1.58025,12.0416667 L1.58025,12.0382799 C1.57425,12.0386562 1.569,12.0405378 1.563375,12.0416667 L1.55175,12.0416667 C1.366875,12.0382799 1.276125,11.8881354 1.276125,11.7014896 C1.276125,11.7003607 1.279125,11.6996081 1.276125,11.6984792 L1.843125,9.45647135 C1.843125,9.34734375 1.755,9.25891276 1.64625,9.25891276 L1.063125,9.25891276 C0.954375,9.25891276 0.86625,9.34734375 0.86625,9.45647135 L0.215625,11.9863503 C0.215625,11.9863503 -0.217125,13.0381146 1.209,13.0381146 L2.45925,13.0381146 C2.46225,13.0516615 2.4645,13.0652083 2.467875,13.0787552 C2.6055,13.6582604 2.957625,14.1335299 3.459,14.4161328 C3.760125,14.5858451 4.103625,14.6757812 4.452,14.6757812 C5.2545,14.6757812 6.009375,14.2181979 6.421875,13.4813984 C6.501,13.3402852 6.564375,13.1935273 6.613125,13.0433828 L16.231875,13.0433828 L16.815,13.0433828 L20.03925,13.0433828 C20.041875,13.0550482 20.04375,13.0667135 20.04675,13.0783789 C20.184375,13.6578841 20.5365,14.1331536 21.037875,14.4157565 C21.339,14.5854687 21.6825,14.6754049 22.030875,14.6754049 C22.833375,14.6754049 23.58825,14.2178216 24.00075,13.4810221 C24.079875,13.3395326 24.143625,13.1923984 24.192375,13.0418776 L25.971375,13.0422539 C26.809125,13.0422539 26.914875,12.5071523 27.067125,11.8369583 L27.635625,9.36728776 C27.840375,8.56915104 27.28875,8.16914193 26.733375,7.89030208" id="Fill-11" fill="#21AC47" mask="url(#mask-2)"></path>
                </g>
            </g>
        </g>
    </g>
</svg>