<svg xmlns="http://www.w3.org/2000/svg" xmlns:xlink="http://www.w3.org/1999/xlink" width="28" height="13" viewBox="0 0 28 13">
    <defs>
        <path id="a" d="M23.786 12.814V.265H.132v12.549H11.96z"/>
    </defs>
    <g fill="none" fill-rule="evenodd">
        <path fill="#ADADAD" d="M3.761 4.934h8.64c.22 0 .399-.182.399-.406a.402.402 0 0 0-.399-.406h-8.64a.403.403 0 0 0-.398.406c0 .224.179.406.398.406zM10.863 2.17h-8.64a.403.403 0 0 0-.398.406c0 .224.178.406.398.406h8.64c.22 0 .398-.182.398-.406a.402.402 0 0 0-.398-.407zM.398 2.17A.403.403 0 0 0 0 2.575c0 .224.178.406.398.406h.84c.219 0 .398-.182.398-.406a.402.402 0 0 0-.399-.407H.398zM9.433 6.887c.22 0 .398-.182.398-.406a.402.402 0 0 0-.398-.406h-4.76a.403.403 0 0 0-.398.406c0 .224.178.406.398.406h4.76zM2.733 6.075a.403.403 0 0 0-.399.406c0 .224.179.406.399.406h.839c.22 0 .398-.182.398-.406a.403.403 0 0 0-.398-.406h-.84z"/>
        <g transform="translate(3.324 .06)">
            <mask id="b" fill="#fff">
                <use xlink:href="#a"/>
            </mask>
            <path fill="#ADADAD" d="M22.832 8.24a838.55 838.55 0 0 1-.428 1.732c-.004 0-.04.517-.499.517h-1.034a2.058 2.058 0 0 0-.035-.191 1.793 1.793 0 0 0-.852-1.168 1.72 1.72 0 0 0-.853-.227c-.69 0-1.339.4-1.693 1.043-.099.18-.17.368-.213.562h-2.311s-.382.06-.312-.316l-.002-.001 1.64-7.243.007-.002c0-.164.13-.32.292-.32l1.074.001h1.119a.36.36 0 0 1 .332.197l.033.076.006.018.006.007 1.966 3.622s.222.478.633.677c.125.06.86.43.86.43.425.178.264.587.264.587m-2.92 3.122c-.21.381-.586.618-.98.618a.9.9 0 0 1-.454-.12.97.97 0 0 1-.456-.634 1.23 1.23 0 0 1 .128-.873c.21-.38.586-.618.98-.618a.9.9 0 0 1 .453.12.97.97 0 0 1 .457.635c.068.29.022.6-.128.872m-15.106 0c-.21.381-.585.618-.98.618a.9.9 0 0 1-.453-.12.97.97 0 0 1-.457-.634 1.23 1.23 0 0 1 .129-.873c.21-.38.585-.618.98-.618a.9.9 0 0 1 .453.12.97.97 0 0 1 .457.635c.067.29.022.6-.129.872M22.857 6.83c0-.002-.075-.04-.075-.04l-.08-.04c-.116-.065-.464-.266-.606-.427a1.212 1.212 0 0 1-.198-.34l-.016-.04c-.022-.059-1.86-3.072-1.86-3.072a.7.7 0 0 0-.12-.3c-.362-.694-.872-.771-1.291-.771h-1.998l-.143-.001.129-.752a.77.77 0 0 0-.761-.775h-.144L14.182.268c-.014-.003-12.426 0-12.426 0a.42.42 0 0 0-.415.424.42.42 0 0 0 .415.424h12.398l1.354.005a.292.292 0 0 1 .245.288l-.124.56-1.876 8.282a.292.292 0 0 1-.282.277H5.743c-.009-.08.005-.152-.013-.23a1.793 1.793 0 0 0-.852-1.168 1.72 1.72 0 0 0-.853-.227c-.69 0-1.338.4-1.693 1.043-.1.18-.171.372-.214.568h-.76c-.183-.003-.261-.134-.261-.297l.487-1.96a.17.17 0 0 0-.17-.173h-.5a.17.17 0 0 0-.17.173l-.559 2.209s-.372.918.854.918h1.074c.126.541.429.956.86 1.203.258.148.553.227.853.227.69 0 1.338-.4 1.693-1.043.068-.123.122-.251.164-.383H17.22c.125.537.428.952.859 1.199.258.148.554.226.853.226.69 0 1.338-.4 1.693-1.042.068-.124.122-.252.164-.384h1.53c.719 0 .81-.467.94-1.052l.49-2.156c.175-.697-.299-1.046-.776-1.29l-.116-.06z" mask="url(#b)"/>
        </g>
    </g>
</svg>
