<?xml version="1.0" encoding="UTF-8"?>
<svg width="27px" height="13px" viewBox="0 0 27 13" version="1.1" xmlns="http://www.w3.org/2000/svg" xmlns:xlink="http://www.w3.org/1999/xlink">
    <!-- Generator: Sketch 40.3 (33839) - http://www.bohemiancoding.com/sketch -->
    <title>Group</title>
    <desc>Created with Sketch.</desc>
    <defs>
        <polygon id="path-1" points="26.1181029 12.340601 26.1181029 0.314867478 14.7841854 0.314867478 3.45026789 0.314867478 3.45026789 12.340601 14.7841854 12.340601"></polygon>
    </defs>
    <g id="Page-1" stroke="none" stroke-width="1" fill="none" fill-rule="evenodd">
        <g id="Group">
            <path d="M3.76147059,4.93428824 L12.4011176,4.93428824 C12.6213088,4.93428824 12.7995,4.75229484 12.7995,4.52810919 C12.7995,4.30392355 12.6213088,4.12193015 12.4011176,4.12193015 L3.76147059,4.12193015 C3.54158824,4.12193015 3.36308824,4.30392355 3.36308824,4.52810919 C3.36308824,4.75229484 3.54158824,4.93428824 3.76147059,4.93428824 Z" id="Fill-1" fill="#2EB455"></path>
            <path d="M10.8625588,2.16943692 L2.22291176,2.16943692 C2.00302941,2.16943692 1.82452941,2.35143032 1.82452941,2.57561597 C1.82452941,2.79980161 2.00302941,2.98179501 2.22291176,2.98179501 L10.8625588,2.98179501 C11.08275,2.98179501 11.2609412,2.79980161 11.2609412,2.57561597 C11.2609412,2.35143032 11.08275,2.16943692 10.8625588,2.16943692 Z" id="Fill-3" fill="#2EB455"></path>
            <path d="M0.398382353,2.16943692 C0.1785,2.16943692 0,2.35143032 0,2.57561597 C0,2.79980161 0.1785,2.98179501 0.398382353,2.98179501 L1.23714706,2.98179501 C1.45702941,2.98179501 1.63552941,2.79980161 1.63552941,2.57561597 C1.63552941,2.35143032 1.45733824,2.16943692 1.23714706,2.16943692 L0.398382353,2.16943692 Z" id="Fill-5" fill="#2EB455"></path>
            <path d="M9.43301471,6.88709634 C9.65289706,6.88709634 9.83108824,6.70510293 9.83108824,6.48091729 C9.83108824,6.25673165 9.65289706,6.07473824 9.43301471,6.07473824 L4.67311765,6.07473824 C4.45323529,6.07473824 4.27473529,6.25673165 4.27473529,6.48091729 C4.27473529,6.70510293 4.45323529,6.88709634 4.67311765,6.88709634 L9.43301471,6.88709634 Z" id="Fill-7" fill="#2EB455"></path>
            <path d="M2.73277941,6.07473824 C2.51289706,6.07473824 2.33439706,6.25673165 2.33439706,6.48091729 C2.33439706,6.70510293 2.51289706,6.88709634 2.73277941,6.88709634 L3.57154412,6.88709634 C3.79142647,6.88709634 3.96992647,6.70510293 3.96992647,6.48091729 C3.96992647,6.25673165 3.79142647,6.07473824 3.57154412,6.07473824 L2.73277941,6.07473824 Z" id="Fill-9" fill="#2EB455"></path>
            <mask id="mask-2" fill="white">
                <use xlink:href="#path-1"></use>
            </mask>
            <g id="Clip-12"></g>
            <path d="M25.2039853,7.95796063 C25.1443824,8.20387213 24.7935588,9.61699737 24.7935588,9.61699737 C24.7904706,9.61794197 24.7549559,10.1129136 24.3158088,10.1129136 L23.3244853,10.1129136 C23.3161471,10.0515145 23.3053382,9.99011533 23.2911324,9.9293459 C23.1777941,9.44413512 22.8878088,9.04677236 22.4749118,8.81030689 C22.2269265,8.66830166 21.9440441,8.59304833 21.6571471,8.59304833 C20.9962647,8.59304833 20.3746029,8.97592718 20.0348971,9.5924377 C19.9403971,9.76404048 19.8724559,9.94540414 19.8307647,10.1308611 L17.6158824,10.1308611 C17.6158824,10.1308611 17.2502353,10.188167 17.3169412,9.82764371 C17.3169412,9.82732884 17.3147794,9.82701397 17.3147794,9.82669911 L18.8873088,2.88639017 C18.8894706,2.88576043 18.8934853,2.88481583 18.8934853,2.88418609 C18.8934853,2.72643749 19.0185588,2.57813491 19.1732794,2.57813491 C19.1766765,2.57813491 19.4138529,2.57813491 20.2028971,2.57844977 L20.2028971,2.57876464 L21.2748235,2.57876464 C21.4545588,2.57687544 21.5475147,2.68487498 21.5929118,2.76674052 L21.6250294,2.83947491 C21.6287353,2.85018041 21.6305882,2.85679262 21.6308971,2.85710749 L21.6361471,2.86434944 L23.5202794,6.33544852 C23.5202794,6.33544852 23.73275,6.79295096 24.1268088,6.98376065 C24.2469412,7.04201113 24.9519853,7.39592218 24.9519853,7.39592218 C25.3587059,7.56658035 25.2039853,7.95796063 25.2039853,7.95796063 M22.4057353,10.950776 C22.2046912,11.3157074 21.8446029,11.5427269 21.4662941,11.5427269 C21.3112647,11.5427269 21.1651912,11.5039982 21.0320882,11.4278002 C20.8118971,11.3015384 20.65625,11.0858541 20.5941765,10.8197911 C20.5293235,10.5423929 20.5731765,10.2454729 20.7173971,9.98350311 C20.9184412,9.6185717 21.2785294,9.39155225 21.6568382,9.39155225 C21.8118676,9.39155225 21.9579412,9.43028095 22.0910441,9.50647888 C22.3112353,9.63274074 22.4668824,9.84842496 22.5289559,10.114488 C22.5938088,10.3922011 22.5499559,10.6891211 22.4057353,10.950776 M8.92963235,10.950776 C8.72858824,11.3157074 8.3685,11.5427269 7.99019118,11.5427269 C7.83516176,11.5427269 7.68908824,11.5039982 7.55598529,11.4278002 C7.33579412,11.3015384 7.18014706,11.0858541 7.11807353,10.8197911 C7.05322059,10.5423929 7.09707353,10.2454729 7.24129412,9.98350311 C7.44233824,9.6185717 7.80242647,9.39155225 8.18073529,9.39155225 C8.33576471,9.39155225 8.48183824,9.43028095 8.61494118,9.50647888 C8.83513235,9.63274074 8.99077941,9.84842496 9.05285294,10.114488 C9.11739706,10.3922011 9.07385294,10.6891211 8.92963235,10.950776 M25.2283824,6.60497508 C25.2277647,6.60371561 25.1564265,6.56750585 25.1564265,6.56750585 L25.0804559,6.52783254 C24.9680441,6.46643339 24.6348235,6.27373449 24.49925,6.11913456 C24.4084559,6.01554316 24.3466912,5.88770696 24.3087059,5.79324672 L24.2935735,5.75514775 C24.2728824,5.69878648 22.5110441,2.81082197 22.5110441,2.81082197 C22.5020882,2.72045501 22.4603971,2.62221635 22.3970882,2.52429257 C22.0490441,1.85897759 21.5601765,1.784354 21.1590147,1.784354 L19.2443088,1.784354 C19.2436912,1.784354 19.1068824,1.78340939 19.1068824,1.78340939 L19.2307206,1.06362234 C19.2307206,0.653664883 18.9033676,0.320220225 18.5015882,0.320220225 L18.3632353,0.320220225 C18.3592206,0.320220225 16.9148529,0.317701285 16.9148529,0.317701285 C16.9012647,0.314867478 5.00664706,0.317701285 5.00664706,0.317701285 C4.78676471,0.317701285 4.60826471,0.499694687 4.60826471,0.723880331 C4.60826471,0.948065975 4.78676471,1.13005938 5.00664706,1.13005938 L16.8879853,1.13005938 C16.8944706,1.13100398 18.1850441,1.13478239 18.1850441,1.13478239 C18.3172206,1.15776771 18.41975,1.26986054 18.41975,1.41092117 C18.41975,1.4115509 18.3014706,1.94839995 18.3014706,1.94839995 L16.5038088,9.88431985 C16.4942353,10.0307332 16.3787353,10.1466045 16.2335882,10.150068 C16.2169118,10.1491234 9.82738235,10.150068 9.82738235,10.150068 C9.81904412,10.0741849 9.83232353,10.0039695 9.81472059,9.92903104 C9.70138235,9.44382025 9.41139706,9.0464575 8.9985,8.80999202 C8.75051471,8.66798679 8.46763235,8.59273346 8.18073529,8.59273346 C7.51985294,8.59273346 6.89819118,8.97561231 6.55848529,9.59212284 C6.46305882,9.76529995 6.3945,9.94886769 6.35280882,10.1365287 L5.62491176,10.1365287 C5.44919118,10.1336949 5.37445588,10.0080628 5.37445588,9.8518885 C5.37445588,9.8509439 5.84139706,7.97338913 5.84139706,7.97338913 C5.84139706,7.88207756 5.76882353,7.80808371 5.67926471,7.80808371 L5.19904412,7.80808371 C5.10948529,7.80808371 5.03691176,7.88207756 5.03691176,7.97338913 L4.50110294,10.0902432 C4.50110294,10.0902432 4.14472059,10.9702978 5.31917647,10.9702978 L6.34879412,10.9702978 C6.46923529,11.4891994 6.75922059,11.886877 7.17211765,12.1233425 C7.42010294,12.2653477 7.70298529,12.340601 7.98988235,12.340601 C8.65076471,12.340601 9.27242647,11.9577222 9.61213235,11.3412117 C9.67729412,11.2231364 9.72948529,11.1003381 9.76963235,10.9747059 L16.6909559,10.9747059 L17.1711765,10.9747059 L19.8264412,10.9747059 C19.9459559,11.4888845 20.2359412,11.8865621 20.6488382,12.1230276 C20.8968235,12.2650329 21.1797059,12.3402862 21.4666029,12.3402862 C22.1274853,12.3402862 22.7491471,11.9574073 23.0888529,11.3408968 C23.1540147,11.2225066 23.2065147,11.0993935 23.2466618,10.9734465 L24.7117206,10.9737613 C25.4016324,10.9737613 25.4887206,10.5260198 25.6141029,9.9652408 L26.0822794,7.89876554 C26.2508971,7.23093162 25.7966176,6.89622749 25.33925,6.66291069 L25.2283824,6.60497508 Z" id="Fill-11" fill="#21AC47" mask="url(#mask-2)"></path>
        </g>
    </g>
</svg>