<?xml version="1.0" encoding="UTF-8"?>
<svg width="65px" height="73px" viewBox="0 0 65 73" version="1.1" xmlns="http://www.w3.org/2000/svg" xmlns:xlink="http://www.w3.org/1999/xlink">
    <!-- Generator: Sketch 46.2 (44496) - http://www.bohemiancoding.com/sketch -->
    <title>Group 13</title>
    <desc>Created with Sketch.</desc>
    <defs></defs>
    <g id="Page-1" stroke="none" stroke-width="1" fill="none" fill-rule="evenodd">
        <g id="2---sepet-pop-up-1'li-loginsiz" transform="translate(-816.000000, -266.000000)">
            <g id="Group-13" transform="translate(816.000000, 266.000000)">
                <g id="Group-14" transform="translate(1.000000, 13.000000)" stroke-width="0.25" stroke="#808080" fill="#808080">
                    <polygon id="Fill-3" points="19 18 31 18 31 15 19 15"></polygon>
                    <path d="M44.6180567,59 L5.38194327,59 C3.9811002,59 2.63862559,58.4610778 1.6380234,57.5045938 C1.57131659,57.4408282 1.50669436,57.3750056 1.44207214,57.3071261 C0.424793243,56.2272248 -0.0942691439,54.7770716 0.0141294269,53.3063488 L2.45309727,19.9528249 C2.65738688,17.1759357 5.00046368,15.0243609 7.82091111,15.0243609 L13.5505479,15 L13.5505479,17.7604335 L7.62079068,17.7847944 C6.38046087,17.7847944 5.34858986,18.7330506 5.25895258,19.9548818 L2.82206933,53.2775514 C2.76578546,54.0427387 3.03469729,54.7955842 3.56418262,55.3571328 C4.09366795,55.9186815 4.83578124,56.2375095 5.61333253,56.2375095 L44.3866675,56.2375095 C45.1621342,56.2375095 45.9063321,55.9186815 46.4358174,55.3571328 C46.9653027,54.7955842 47.2342145,54.0427387 47.1779307,53.2775514 L44.7410474,19.9548818 C44.6514101,18.7330506 43.6195391,17.7847944 42.3792093,17.7847944 L36.4304296,17.7847944 L36.4304296,15.0243609 L42.1770043,15.0243609 C43.675823,15.0243609 45.0412281,15.6311626 46.0209844,16.6185009 C46.8860884,17.4865359 47.4510117,18.6507724 47.5469027,19.9528249 L49.9858706,53.3063488 C50.0942691,54.7770716 49.5752068,56.2272248 48.5579279,57.3071261 C47.540649,58.3870274 46.1127063,59 44.6180567,59 Z" id="Fill-4"></path>
                    <path d="M16.765776,25 C18.2932741,25 19.5317633,23.7797815 19.5317633,22.2745606 C19.5317633,21.281219 18.9907435,20.4147535 18.1852393,19.9384995 L18.1852393,10.0055 C18.1852393,6.03067526 21.4666648,2.79710664 25.5001057,2.79710664 C29.5335466,2.79710664 32.8149721,6.03067526 32.8149721,10.0055 L32.8149721,19.9384995 C32.0092565,20.4147535 31.4684481,21.281219 31.4684481,22.2745606 C31.4684481,23.7797815 32.7067259,25 34.234224,25 C35.7617222,25 37,23.7797815 37,22.2745606 C37,21.281219 36.4591916,20.4147535 35.6536874,19.9384995 L35.6536874,10.0055 C35.6536874,4.48837074 31.0988887,0 25.5001057,0 C19.9013227,0 15.346524,4.48837074 15.346524,10.0055 L15.346524,19.9384995 C14.5410198,20.4147535 14,21.281219 14,22.2745606 C14,23.7797815 15.2382778,25 16.765776,25" id="Fill-5"></path>
                </g>
                <g id="phone-icon" transform="translate(39.000000, 2.000000)">
                    <circle id="Oval" stroke="#FFFFFF" stroke-width="3" fill="#F27A1A" cx="12" cy="12" r="12"></circle>
                    <rect id="Rectangle-10" fill="#FFFFFF" x="10" y="5" width="3" height="9" rx="1.5"></rect>
                    <path d="M19,12.5 C19,13.3284271 18.2634922,14 17.3701679,14 L11.6298321,14 C10.7297007,14 10,13.3342028 10,12.5 C10,11.6715729 10.7365078,11 11.6298321,11 L17.3701679,11 C18.2702993,11 19,11.6657972 19,12.5 Z" id="Rectangle-10-Copy" fill="#FFFFFF"></path>
                </g>
            </g>
        </g>
    </g>
</svg>