<?xml version="1.0" encoding="UTF-8"?>
<svg width="16px" height="16px" viewBox="0 0 16 16" version="1.1" xmlns="http://www.w3.org/2000/svg" xmlns:xlink="http://www.w3.org/1999/xlink">
    <!-- Generator: Sketch 40.3 (33839) - http://www.bohemiancoding.com/sketch -->
    <title>Group 8</title>
    <desc>Created with Sketch.</desc>
    <defs></defs>
    <g id="Anasayfa" stroke="none" stroke-width="1" fill="none" fill-rule="evenodd">
        <g id="Top-Header" transform="translate(-1272.000000, -7.000000)">
            <g id="Group-9" transform="translate(1272.000000, 6.000000)">
                <g id="Group-8" transform="translate(0.000000, 1.000000)">
                    <circle id="Oval-3" stroke="#DEDEDE" cx="8" cy="8" r="7"></circle>
                    <path d="M5.48339844,6.23681641 C5.48339844,5.89664543 5.59260958,5.5520037 5.81103516,5.20288086 C6.02946073,4.85375802 6.34814244,4.56461703 6.76708984,4.33544922 C7.18603725,4.10628141 7.67480189,3.99169922 8.23339844,3.99169922 C8.75260676,3.99169922 9.21093551,4.08748277 9.60839844,4.27905273 C10.0058614,4.4706227 10.3129058,4.73111814 10.529541,5.06054688 C10.7461762,5.38997561 10.8544922,5.74804494 10.8544922,6.13476562 C10.8544922,6.43912913 10.7927252,6.70589078 10.6691895,6.93505859 C10.5456537,7.16422641 10.3988453,7.36205971 10.2287598,7.52856445 C10.0586743,7.69506919 9.75342017,7.97525845 9.31298828,8.36914062 C9.19124288,8.48014378 9.09366899,8.57771768 9.02026367,8.66186523 C8.94685836,8.74601279 8.89225278,8.8229977 8.85644531,8.89282227 C8.82063784,8.96264683 8.79288747,9.03247035 8.77319336,9.10229492 C8.75349925,9.17211949 8.72395853,9.29475824 8.68457031,9.47021484 C8.61653612,9.84261254 8.40348486,10.0288086 8.04541016,10.0288086 C7.85921131,10.0288086 7.70255597,9.96793681 7.57543945,9.84619141 C7.44832293,9.72444601 7.38476562,9.54362099 7.38476562,9.30371094 C7.38476562,9.00292818 7.43131464,8.74243274 7.52441406,8.5222168 C7.61751349,8.30200085 7.74104741,8.10864341 7.89501953,7.94213867 C8.04899166,7.77563393 8.25667187,7.57780063 8.51806641,7.34863281 C8.74723422,7.14811098 8.91284129,6.99682668 9.01489258,6.89477539 C9.11694387,6.7927241 9.20288051,6.67903708 9.27270508,6.55371094 C9.34252965,6.42838479 9.37744141,6.29231844 9.37744141,6.14550781 C9.37744141,5.85904805 9.27091578,5.61735125 9.05786133,5.42041016 C8.84480688,5.22346907 8.56998866,5.125 8.23339844,5.125 C7.83951626,5.125 7.5494801,5.22436424 7.36328125,5.4230957 C7.1770824,5.62182717 7.01953189,5.91454885 6.890625,6.30126953 C6.7688796,6.70589395 6.53792488,6.90820312 6.19775391,6.90820312 C5.99723207,6.90820312 5.82804431,6.83748443 5.69018555,6.69604492 C5.55232678,6.55460541 5.48339844,6.40153077 5.48339844,6.23681641 L5.48339844,6.23681641 Z M8.10449219,12.1235352 C7.88606662,12.1235352 7.69539469,12.0528165 7.5324707,11.911377 C7.36954671,11.7699374 7.28808594,11.5721041 7.28808594,11.3178711 C7.28808594,11.092284 7.36686119,10.9025073 7.52441406,10.7485352 C7.68196693,10.594563 7.87532437,10.5175781 8.10449219,10.5175781 C8.33007925,10.5175781 8.519856,10.594563 8.67382812,10.7485352 C8.82780025,10.9025073 8.90478516,11.092284 8.90478516,11.3178711 C8.90478516,11.5685234 8.82421956,11.7654615 8.66308594,11.9086914 C8.50195232,12.0519213 8.31575626,12.1235352 8.10449219,12.1235352 L8.10449219,12.1235352 Z" id="?" fill="#DEDEDE"></path>
                </g>
            </g>
        </g>
    </g>
</svg>