<?xml version="1.0" encoding="UTF-8"?>
<svg width="21px" height="9px" viewBox="0 0 21 9" version="1.1" xmlns="http://www.w3.org/2000/svg" xmlns:xlink="http://www.w3.org/1999/xlink">
    <!-- Generator: Sketch 40.3 (33839) - http://www.bohemiancoding.com/sketch -->
    <title>Capa_1</title>
    <desc>Created with Sketch.</desc>
    <defs></defs>
    <g id="Login-Sign-up" stroke="none" stroke-width="1" fill="none" fill-rule="evenodd">
        <g id="2_1---Sign-Up-" transform="translate(-853.000000, -510.000000)" fill="#F27A1A">
            <g id="groom-shoes" transform="translate(853.000000, 510.000000)">
                <g id="Capa_1">
                    <path d="M20.0780471,1.45119905 C19.980947,1.28219573 19.7728901,1.21192782 19.5930102,1.28770391 C19.5638544,1.29995575 16.6605355,2.51484409 14.9613609,2.54881978 C14.946783,2.54912865 14.9323596,2.54923161 14.9176787,2.54923161 C13.3139558,2.54923161 11.4836832,0.841901664 11.465551,0.824810862 C11.3249233,0.691996798 11.1074911,0.683657311 10.9569731,0.805403536 L10.0441291,1.54432333 C10.1109401,1.23725516 10.2409049,0.893122592 10.4936742,0.682679222 C10.6575854,0.546158719 10.679684,0.302717747 10.5431773,0.138913734 C10.4065674,-0.0248902779 10.1629672,-0.046974477 9.99900456,0.0894430695 C9.53318161,0.477435163 9.33851779,1.07931967 9.25759245,1.54519846 C8.7707526,1.38062228 8.21055968,1.47642343 7.80227563,1.84433898 C7.29462494,2.30192976 7.18171065,3.03616503 7.48568292,3.61509021 L5.56686119,5.16829406 C5.30636504,5.17493477 4.67333416,5.18878243 3.86335959,5.18878243 C3.27601985,5.18878243 2.70464882,5.18152399 2.16495768,5.16747041 C2.14594975,5.16695563 2.1272509,5.16664676 2.10850053,5.16664676 C0.86639185,5.16664676 0.117252939,6.26890053 0.0142289534,6.72849897 C-0.0455249582,6.99474484 0.0937119582,7.16498364 0.231042931,7.22969189 C1.26813388,7.71914775 5.78398424,8.4 8.80918055,8.4 C10.3687061,8.4 11.364536,8.22734172 11.8536939,7.87245018 C12.6421879,7.30037162 13.6200916,6.97894099 14.4750877,6.79814913 L14.4750877,7.71621348 C14.4750877,7.92948816 14.6480134,8.10230088 14.8614276,8.10230088 L20.532692,8.10230088 C20.7461061,8.10230088 20.9190319,7.92948816 20.9190319,7.71621348 L20.9190319,6.22179787 C20.9190319,6.21850326 20.9186198,6.21526012 20.9185168,6.21206847 C21.316653,3.64489616 20.1290955,1.5398962 20.0780471,1.45119905 L20.0780471,1.45119905 Z M15.2478191,6.6643055 C15.945652,6.56881322 16.4476879,6.56608487 16.4958516,6.56608487 L20.146352,6.56618783 L20.146352,7.33022904 L15.2477675,7.33022904 L15.2477675,6.6643055 L15.2478191,6.6643055 Z M8.31986813,2.41775598 C8.53771235,2.22131471 8.84683582,2.18924372 9.09496909,2.31258577 L8.11309899,3.10735955 C8.05071797,2.86494814 8.12123789,2.59669462 8.31986813,2.41775598 L8.31986813,2.41775598 Z M11.3998217,7.24765782 C11.2422465,7.36199117 10.6745328,7.62792817 8.80923206,7.62792817 C6.0973832,7.62792817 2.23913494,7.06007082 0.896886949,6.65364949 C1.09185984,6.36017159 1.5065829,5.92399579 2.14476497,5.93938781 C2.69104966,5.9536473 3.2693748,5.9610087 3.86335959,5.9610087 C4.94140257,5.9610087 5.71305222,5.93665946 5.72072751,5.93645355 C5.80494962,5.93372519 5.8860295,5.9035589 5.95150124,5.85058771 L8.04057011,4.15973083 L8.96598306,4.97293384 C9.03933613,5.0373847 9.13035782,5.06904386 9.22091591,5.06904386 C9.32816388,5.06904386 9.4347937,5.02472103 9.51118599,4.93792858 C9.6521228,4.77777953 9.63646315,4.53382378 9.47615783,4.39308205 L8.64964791,3.66677444 L9.57768797,2.91549985 L10.9568186,4.12745392 C11.0301716,4.19190478 11.1211933,4.22356395 11.2117514,4.22356395 C11.3189994,4.22356395 11.4256292,4.17924111 11.5020215,4.09244867 C11.6429583,3.93229961 11.6272986,3.68834386 11.4670964,3.54760213 L10.1867658,2.42254346 L11.1895497,1.61083332 C11.8041908,2.12942591 13.4222855,3.35234487 14.976866,3.32078866 C16.4807586,3.29072532 18.7114855,2.46866804 19.5562821,2.13560331 C19.8282139,2.73300921 20.363063,4.15432561 20.1938461,5.79396156 L16.5112537,5.79396156 L16.4958516,5.7938586 C16.1793619,5.79391008 13.347078,5.83473239 11.3998217,7.24765782 L11.3998217,7.24765782 Z" id="Shape"></path>
                </g>
            </g>
        </g>
    </g>
</svg>