<svg xmlns="http://www.w3.org/2000/svg" width="18" height="18" viewBox="0 0 18 18">
    <g fill="#ADADAD" fill-rule="evenodd">
        <path d="M17.316 14.082l-3.527-3.527a1.081 1.081 0 0 0-1.527 0l-.917.917a1.08 1.08 0 0 0-.273 1.064l-.346.346c-.246.246-1.776-.132-3.626-1.982-1.85-1.85-2.228-3.38-1.982-3.626l.346-.346a1.085 1.085 0 0 0 1.063-.273l.918-.918a1.08 1.08 0 0 0 0-1.527L3.918.683a1.073 1.073 0 0 0-.764-.316c-.288 0-.56.113-.763.316l-.917.918A1.08 1.08 0 0 0 1.2 2.664s-.293.296-.308.315C-.083 4.063-.266 5.77.38 7.812c.634 2 2 4.117 3.845 5.963 1.846 1.846 3.964 3.211 5.963 3.845.803.254 1.554.38 2.236.38 1.118 0 2.05-.34 2.72-1.008l.192-.192a1.084 1.084 0 0 0 1.063-.274l.917-.917a1.081 1.081 0 0 0 0-1.527zM3.154 1.447l3.527 3.527-.916.918-.014-.014L4 4.128 2.237 2.364l.917-.917zM14.38 16.229c-.777.777-2.15.905-3.866.361-1.837-.582-3.8-1.853-5.525-3.579-1.726-1.726-2.997-3.688-3.58-5.525-.543-1.716-.415-3.09.362-3.866l.097-.097L4.606 6.26l-.251.25v.001c-1.041 1.042.209 3.38 1.981 5.153 1.327 1.326 2.97 2.36 4.15 2.36.397 0 .741-.117 1.003-.379l.251-.25 2.737 2.736-.097.098zm1.256-.466l-3.527-3.527.917-.917 3.527 3.527-.917.917zM13.67 4.33a5.4 5.4 0 0 0-3.845-1.592.54.54 0 1 0 0 1.08c1.164 0 2.258.453 3.08 1.276a4.328 4.328 0 0 1 1.277 3.08.54.54 0 0 0 1.08 0 5.401 5.401 0 0 0-1.593-3.843z"/>
        <path d="M15.606 2.394A8.121 8.121 0 0 0 9.825 0a.54.54 0 0 0 0 1.08c1.895 0 3.677.738 5.017 2.078a7.049 7.049 0 0 1 2.078 5.017.54.54 0 0 0 1.08 0c0-2.184-.85-4.237-2.394-5.78zM11.733 6.267a2.644 2.644 0 0 0-1.907-.79.54.54 0 1 0 0 1.08c.444 0 .83.159 1.144.473.31.31.473.706.473 1.145a.54.54 0 1 0 1.08 0c0-.731-.273-1.391-.79-1.908z"/>
    </g>
</svg>
