<?xml version="1.0" encoding="UTF-8"?>
<svg width="24px" height="13px" viewBox="0 0 24 13" version="1.1" xmlns="http://www.w3.org/2000/svg" xmlns:xlink="http://www.w3.org/1999/xlink">
    <!-- Generator: Sketch 40.3 (33839) - http://www.bohemiancoding.com/sketch -->
    <title>Group 773</title>
    <desc>Created with Sketch.</desc>
    <defs></defs>
    <g id="Ürün-Detay" stroke="none" stroke-width="1" fill="none" fill-rule="evenodd" stroke-linecap="round" stroke-linejoin="round">
        <g id="Ürün-Detay---Normal-Teslimat" transform="translate(-875.000000, -604.000000)" stroke="#666666">
            <g id="Group-773" transform="translate(875.000000, 604.000000)">
                <polyline id="Stroke-1371" points="16.5 3.5 21 3.5 23.5 7.5 23.5 10.5 20.913 10.5"></polyline>
                <polyline id="Stroke-1372" points="10.9131 10.5 16.5111 10.5 16.5001 0.5 11.5001 0.5"></polyline>
                <polyline id="Stroke-1372" transform="translate(9.528135, 5.528799) scale(-1, 1) translate(-9.528135, -5.528799) " points="11.4150676 10.5575976 13.5562701 10.5 13.5385852 0.5 5.5 0.5"></polyline>
                <path d="M21,11 C21,11.828 20.329,12.5 19.5,12.5 C18.672,12.5 18,11.828 18,11 C18,10.171 18.672,9.5 19.5,9.5 C20.329,9.5 21,10.171 21,11 L21,11 Z" id="Stroke-1374"></path>
                <path d="M11,11 C11,11.828 10.329,12.5 9.5,12.5 C8.672,12.5 8,11.828 8,11 C8,10.171 8.672,9.5 9.5,9.5 C10.329,9.5 11,10.171 11,11 L11,11 Z" id="Stroke-1375"></path>
                <path d="M0.5,5.5 L3.5,5.505" id="Stroke-1376"></path>
                <path d="M2,7.5 L3.5,7.505" id="Stroke-1377"></path>
                <path d="M3,9.5 L3.5,9.505" id="Stroke-1378"></path>
                <path d="M23.5,7.5 L16.5,7.5" id="Stroke-1379"></path>
                <path d="M16.5107,10.5 L18.0927,10.5" id="Stroke-1380"></path>
            </g>
        </g>
    </g>
</svg>