<?xml version="1.0" encoding="UTF-8"?>
<svg width="13px" height="13px" viewBox="0 0 13 13" version="1.1" xmlns="http://www.w3.org/2000/svg" xmlns:xlink="http://www.w3.org/1999/xlink">
    <!-- Generator: Sketch 46.2 (44496) - http://www.bohemiancoding.com/sketch -->
    <title>search h</title>
    <desc>Created with Sketch.</desc>
    <defs></defs>
    <g id="Header" stroke="none" stroke-width="1" fill="none" fill-rule="evenodd">
        <g id="New-Navigation-Hover" transform="translate(-1196.000000, -135.000000)" fill-rule="nonzero" fill="#F27A1A">
            <g id="Group-3" transform="translate(-280.000000, -11.000000)">
                <g id="Group-7" transform="translate(1211.000000, 136.000000)">
                    <g id="Group-12">
                        <g id="search" transform="translate(265.000000, 10.000000)">
                            <path d="M12.8023435,11.8409402 L9.59762114,8.62300319 C10.4216116,7.67731629 10.8730808,6.48744865 10.8730808,5.24874487 C10.8730808,2.35463259 8.4342015,0 5.4365404,0 C2.4388793,0 0,2.35463259 0,5.24874487 C0,8.14285714 2.4388793,10.4974897 5.4365404,10.4974897 C6.56190426,10.4974897 7.63432095,10.1697855 8.5512053,9.54769512 L11.7802739,12.7900502 C11.915242,12.9253765 12.0967751,13 12.2913087,13 C12.475442,13 12.6501204,12.9322227 12.7827247,12.8089913 C13.0644793,12.5472387 13.0734614,12.1131903 12.8023435,11.8409402 Z M5.4365404,1.36923779 C7.65228517,1.36923779 9.45485286,3.10953902 9.45485286,5.24874487 C9.45485286,7.38795071 7.65228517,9.12825194 5.4365404,9.12825194 C3.22079563,9.12825194 1.41822793,7.38795071 1.41822793,5.24874487 C1.41822793,3.10953902 3.22079563,1.36923779 5.4365404,1.36923779 Z" id="Shape"></path>
                        </g>
                    </g>
                </g>
            </g>
        </g>
    </g>
</svg>