<svg width="76" height="76" viewBox="0 0 76 76" xmlns="http://www.w3.org/2000/svg" xmlns:xlink="http://www.w3.org/1999/xlink"><title>B5DC7286-56C0-44CC-A207-7457A6044D2F</title><defs><path d="M0 38c0 20.953 17.047 38 38 38s38-17.047 38-38S58.953 0 38 0 0 17.047 0 38zm4.046 0C4.046 19.279 19.279 4.047 38 4.047S71.954 19.279 71.954 38c0 18.721-15.233 33.953-33.954 33.953S4.046 56.721 4.046 38z" id="a"/><path d="M0 3.744v.369a3.735 3.735 0 0 0 3.738 3.744 3.744 3.744 0 0 0 3.74-3.744v-.369A3.737 3.737 0 0 0 3.738 0 3.744 3.744 0 0 0 0 3.744z" id="c"/><path d="M0 3.744v.369a3.734 3.734 0 0 0 3.738 3.744c2.06 0 3.74-1.676 3.74-3.744v-.369A3.736 3.736 0 0 0 3.737 0 3.745 3.745 0 0 0 0 3.744z" id="e"/></defs><g fill="none" fill-rule="evenodd"><g><mask id="b" fill="#fff"><use xlink:href="#a"/></mask><path fill="#169F49" mask="url(#b)" d="M-6.333 82.333h88.666V-6.333H-6.333z"/></g><g transform="translate(21.533 25.333)"><mask id="d" fill="#fff"><use xlink:href="#c"/></mask><path fill="#169F49" mask="url(#d)" d="M-6.333 14.192H13.81V-6.333H-6.333z"/></g><g transform="translate(46.867 25.333)"><mask id="f" fill="#fff"><use xlink:href="#e"/></mask><path fill="#169F49" mask="url(#f)" d="M-6.333 14.192H13.81V-6.333H-6.333z"/></g><path d="M21.533 47.183s14.33 18.481 32.81 0" stroke="#169F49" stroke-width="3" stroke-linecap="round"/></g></svg>