<?xml version="1.0" encoding="utf-8"?>
<!-- Generator: Adobe Illustrator 20.1.0, SVG Export Plug-In . SVG Version: 6.00 Build 0)  -->
<svg version="1.1" id="Layer_1" xmlns="http://www.w3.org/2000/svg" xmlns:xlink="http://www.w3.org/1999/xlink" x="0px" y="0px"
	 viewBox="0 0 847.1 287.3" style="enable-background:new 0 0 847.1 287.3;" xml:space="preserve">
<style type="text/css">
	.st0{fill:#231F20;}
	.st1{fill:#FF671B;}
	.st2{fill:#FFFFFF;}
</style>
<title>Untitled-1</title>
<g>
	<path class="st0" d="M302.9,200.6h-95.9c4.4,18,19,31.6,38,31.6c10.7,0,21.2-4.6,28.2-12.5l23.2,0.5
		c-10.2,19.4-29.7,31.8-52.3,31.8c-33,0-58.9-28.6-58.9-61c0-33.4,25.5-60.8,59.4-60.8c32.8,0,59,27,59,59.6
		C303.5,193.3,303.3,197.1,302.9,200.6L302.9,200.6z M244.3,150c-18.8,0-36.2,14.8-37.4,33.9h74.8C280.5,164.9,263.2,150,244.3,150
		L244.3,150z"/>
	<path class="st0" d="M399,249.1v-62.9c0-19.6-5.9-36.2-28.9-36.2c-21.3,0-30.5,16.5-30.5,36v63.1h-21.7V133.3h20.3v12.3h0.4
		c8.4-11.1,20.5-15.5,33.9-15.5c16.5,0,32,6.5,41,20.7c5.6,8.8,7.3,19.4,7.3,29.7v68.6H399L399,249.1z"/>
	<path class="st0" d="M536.3,249.1v-16.5h-0.4c-9.6,13.4-24.9,19.4-41,19.4c-34.7,0-60.2-25.9-60.2-60.4c0-34.7,25.1-61.5,60.2-61.5
		c14.6,0,30.1,5.6,39.3,17.3h0.4V94.4h21.7v154.7H536.3L536.3,249.1z M496.1,150c-23,0-39.7,18.8-39.7,41.4
		c0,21.7,17.4,40.8,39.5,40.8c22.6,0,40.3-18.4,40.3-40.8C536.3,168.2,519.8,150,496.1,150L496.1,150z"/>
	<polygon class="st0" points="619.2,287.8 596.7,287.8 613.6,246.8 567.4,133.3 590.8,133.3 624.9,223.2 659.8,133.3 683.2,133.3 
		619.2,287.8 	"/>
	<path class="st0" d="M745.1,252c-34.1,0-62.5-27.4-62.5-61.7c0-34.1,29.1-60.2,62.5-60.2c33.9,0,62.5,26.3,62.5,60.6
		C807.6,223.8,780.2,252,745.1,252L745.1,252z M745.1,150c-22.6,0-40.8,18.4-40.8,41c0,22.6,18.2,41.2,40.8,41.2
		c22.8,0,40.8-18.8,40.8-41.4C785.8,168.2,767.6,150,745.1,150L745.1,150z"/>
	<polygon class="st0" points="825.3,249.1 825.3,94.4 847.1,94.4 847.1,249.1 825.3,249.1 	"/>
	<path class="st0" d="M21.5,226.3c0.9,3.7,2.1,6.7,3.5,9c1.4,2.3,3.2,4.3,5.3,6.2c6.9,6,15.6,9.1,25.9,9.1c10.2,0,19.8-2.5,28.5-7.3
		v-20.8c-9,5.3-17.6,8-25.7,8c-11,0-16.7-6.7-16.7-20v-56.7h36.5v-20.1H42.4V96.5H20.9v37.1H0v20.1h20v51.4
		C20,215.5,20.5,222.6,21.5,226.3L21.5,226.3z"/>
	<path class="st0" d="M153,152.7c6.7,0,14.1,3.7,22,11.1l11.8-19.6c-9.6-8.8-21.2-12.8-28-12.8h-1.5c-7.8,0-20.8,0-31.4,17.2
		l-0.4,0.7l0.1-15.6h-22.5v114.8h22.5v-60c0-9.6,2.7-18,8.1-25.1C139.1,156.3,145.6,152.7,153,152.7L153,152.7z"/>
	<path class="st1" d="M622.2,107c-1,0.2-2-0.6-2.2-1.6L614.2,69c-1.9-11.9-0.1-21.8,6.2-29.9c6.1-8,15.2-12.8,26.8-14.7l151.2-24
		c1-0.2,2,0.6,2.2,1.6L812.1,75c0.2,1-0.6,2-1.6,2.2L622.2,107L622.2,107z"/>
	<path class="st2" d="M672.8,68.5c-1.3,4.7-4.8,7.8-9.6,8.6c-6.1,1-13.1-2.6-14.5-11.4c-1.3-7.9,2.9-14.2,10.2-15.4
		c4.8-0.8,8.7,1,11.8,5.2l7.3-1.2c-3.3-7.1-11.9-11.3-20.1-10c-10.8,1.8-17.6,11.4-15.8,22.4c1.8,11.1,11.3,18.1,22,16.3
		c8.2-1.3,14.4-7.5,15.9-15.8L672.8,68.5L672.8,68.5z"/>
	<path class="st2" d="M701,37.3c-11,1.8-18.5,11.8-16.7,22.4c1.8,10.8,12.1,18.1,23.1,16.3c11-1.8,18.4-12,16.7-22.7
		C722.2,42.7,711.9,35.5,701,37.3L701,37.3z M706.3,70c-7.3,1.2-14.3-3.8-15.5-11.3c-1.2-7.4,3.8-14.4,11.1-15.6
		c7.3-1.2,14.3,3.8,15.5,11.1C718.6,61.8,713.7,68.8,706.3,70L706.3,70z"/>
	<path class="st2" d="M788.6,61.7L785,39.5c-1.6-9.7-8.1-14.7-17.5-13.1c-5.7,0.9-9.1,3.4-11.1,8.1l-0.2,0.4l-0.2-0.3
		c-2.7-3.9-8.3-4.9-12.4-4.3c-4.7,0.8-7.1,2.5-9.7,6.7l-0.1,0.1l-0.4,0.1l-0.7-4l-6,1l6,36.8l6.6-1.1L736,49.3
		c-1.2-7.6,1.2-11.8,7.6-12.8c3.2-0.5,5.8,0.3,7.7,2.4c2,2.3,2.4,4.7,2.8,7.5l3.4,20.5l6.6-1.1l-3.4-20.5
		c-0.9-5.3-0.8-11.5,7.2-12.8c5.9-1,9.7,2.5,10.9,9.9l3.3,20.5L788.6,61.7L788.6,61.7z"/>
	<path class="st2" d="M641,83.4c0,2.9-2.4,5.3-5.3,5.3c-2.9,0-5.3-2.4-5.3-5.3c0-2.9,2.4-5.3,5.3-5.3C638.7,78,641,80.4,641,83.4
		L641,83.4z"/>
</g>
</svg>
