<?xml version="1.0" encoding="UTF-8"?>
<svg width="63px" height="59px" viewBox="0 0 63 59" version="1.1" xmlns="http://www.w3.org/2000/svg" xmlns:xlink="http://www.w3.org/1999/xlink">
    <!-- Generator: Sketch 40.3 (33839) - http://www.bohemiancoding.com/sketch -->
    <title>Group 6</title>
    <desc>Created with Sketch.</desc>
    <defs>
        <polygon id="path-1" points="12.5130196 0.915241935 0.0575 0.915241935 0.0575 28.3073952 24.9685392 28.3073952 24.9685392 0.915241935"></polygon>
    </defs>
    <g id="Tedarikçi-gösterimleri" stroke="none" stroke-width="1" fill="none" fill-rule="evenodd">
        <g id="Siparişdetay-hover" transform="translate(-240.000000, -601.000000)">
            <g id="baloon" transform="translate(213.000000, 562.000000)">
                <g id="Group-7">
                    <g id="Group-6" transform="translate(27.000000, 39.000000)">
                        <path d="M3.136,46 L4.298,46 L4.298,37.796 L7.084,37.796 L7.084,36.816 L0.35,36.816 L0.35,37.796 L3.136,37.796 L3.136,46 Z M9.828,37.754 L11.368,37.754 C12.796,37.754 13.58,38.188 13.58,39.392 C13.58,40.582 12.796,41.17 11.368,41.17 L9.828,41.17 L9.828,37.754 Z M15.022,46 L12.684,41.996 C13.93,41.674 14.742,40.82 14.742,39.392 C14.742,37.488 13.398,36.816 11.536,36.816 L8.652,36.816 L8.652,46 L9.828,46 L9.828,42.122 L11.48,42.122 L13.692,46 L15.022,46 Z M16.716,46 L22.148,46 L22.148,45.006 L17.892,45.006 L17.892,41.674 L21.364,41.674 L21.364,40.68 L17.892,40.68 L17.892,37.796 L22.008,37.796 L22.008,36.816 L16.716,36.816 L16.716,46 Z M24.024,46 L25.13,46 L25.13,41.198 C25.13,40.232 25.046,39.252 24.99,38.328 L25.046,38.328 L26.04,40.218 L29.358,46 L30.562,46 L30.562,36.816 L29.456,36.816 L29.456,41.562 C29.456,42.528 29.554,43.564 29.61,44.488 L29.554,44.488 L28.56,42.584 L25.228,36.816 L24.024,36.816 L24.024,46 Z M33.012,46 L35.364,46 C38.136,46 39.648,44.292 39.648,41.366 C39.648,38.454 38.136,36.816 35.308,36.816 L33.012,36.816 L33.012,46 Z M34.188,45.048 L34.188,37.768 L35.224,37.768 C37.38,37.768 38.444,39.056 38.444,41.366 C38.444,43.69 37.38,45.048 35.224,45.048 L34.188,45.048 Z M42.798,46 L43.96,46 L43.96,42.444 L46.718,36.816 L45.514,36.816 L44.324,39.406 C44.044,40.078 43.722,40.722 43.414,41.408 L43.358,41.408 C43.036,40.722 42.756,40.078 42.462,39.406 L41.286,36.816 L40.026,36.816 L42.798,42.444 L42.798,46 Z M51.1,46.168 C53.396,46.168 55.02,44.32 55.02,41.366 C55.02,38.44 53.396,36.648 51.1,36.648 C48.79,36.648 47.166,38.426 47.166,41.366 C47.166,44.32 48.79,46.168 51.1,46.168 L51.1,46.168 Z M51.1,45.146 C49.448,45.146 48.37,43.662 48.37,41.366 C48.37,39.084 49.448,37.67 51.1,37.67 C52.738,37.67 53.816,39.084 53.816,41.366 C53.816,43.662 52.738,45.146 51.1,45.146 L51.1,45.146 Z M56.924,46 L62.104,46 L62.104,45.006 L58.1,45.006 L58.1,36.816 L56.924,36.816 L56.924,46 Z" id="TRENDYOL" fill="#333333"></path>
                        <path d="M2.066,59 L3.574,59 L3.574,55.88 L4.926,55.88 C6.746,55.88 8.15,55.009 8.15,53.124 C8.15,51.148 6.785,50.498 4.926,50.498 L2.066,50.498 L2.066,59 Z M3.574,54.671 L3.574,51.707 L4.796,51.707 C6.031,51.707 6.668,52.058 6.668,53.124 C6.668,54.164 6.07,54.671 4.796,54.671 L3.574,54.671 Z M11.89,55.516 L12.189,54.476 C12.462,53.579 12.709,52.617 12.943,51.668 L12.995,51.668 C13.242,52.604 13.502,53.579 13.762,54.476 L14.061,55.516 L11.89,55.516 Z M15.062,59 L16.661,59 L13.892,50.498 L12.124,50.498 L9.34199998,59 L10.889,59 L11.552,56.699 L14.399,56.699 L15.062,59 Z M20.583,51.707 L21.779,51.707 C22.949,51.707 23.573,52.045 23.573,53.02 C23.573,53.982 22.949,54.476 21.779,54.476 L20.583,54.476 L20.583,51.707 Z M25.393,59 L23.365,55.451 C24.392,55.1 25.068,54.32 25.068,53.02 C25.068,51.122 23.703,50.498 21.935,50.498 L19.075,50.498 L19.075,59 L20.583,59 L20.583,55.672 L21.87,55.672 L23.703,59 L25.393,59 Z M29.6789999,59 L31.1869999,59 L31.1869999,51.772 L33.6309999,51.772 L33.6309999,50.498 L27.2219999,50.498 L27.2219999,51.772 L29.6789999,51.772 L29.6789999,59 Z M36.4219999,59 L37.8519999,59 L37.8519999,55.282 C37.8519999,54.333 37.7349999,53.306 37.6569999,52.409 L37.7089999,52.409 L38.5929999,54.216 L41.2319999,59 L42.7789999,59 L42.7789999,50.498 L41.3489999,50.498 L41.3489999,54.19 C41.3489999,55.139 41.4659999,56.218 41.5439999,57.089 L41.4919999,57.089 L40.6079999,55.282 L37.9689999,50.498 L36.4219999,50.498 L36.4219999,59 Z M46.3109999,59 L51.5499999,59 L51.5499999,57.726 L47.8189999,57.726 L47.8189999,55.217 L50.8739999,55.217 L50.8739999,53.943 L47.8189999,53.943 L47.8189999,51.772 L51.4199999,51.772 L51.4199999,50.498 L46.3109999,50.498 L46.3109999,59 Z M56.1609999,51.707 L57.3569999,51.707 C58.5269999,51.707 59.1509999,52.045 59.1509999,53.02 C59.1509999,53.982 58.5269999,54.476 57.3569999,54.476 L56.1609999,54.476 L56.1609999,51.707 Z M60.9709999,59 L58.9429999,55.451 C59.9699999,55.1 60.6459999,54.32 60.6459999,53.02 C60.6459999,51.122 59.2809999,50.498 57.5129999,50.498 L54.6529999,50.498 L54.6529999,59 L56.1609999,59 L56.1609999,55.672 L57.4479999,55.672 L59.2809999,59 L60.9709999,59 Z" id="PARTNER" fill="#F27A1A"></path>
                        <g id="Group-5" transform="translate(17.000000, 0.000000)">
                            <g id="thumb-up-outline-symbol" transform="translate(12.937500, 14.625000) scale(-1, 1) translate(-12.937500, -14.625000) ">
                                <mask id="mask-2" fill="white">
                                    <use xlink:href="#path-1"></use>
                                </mask>
                                <g id="Clip-2"></g>
                                <path d="M23.7599583,14.2938145 C22.7604167,13.3464919 21.3487917,13.2360968 20.37225,13.2360968 C19.8700833,13.2360968 19.3870833,13.269121 18.9309167,13.3030887 C18.8935417,13.3030887 18.8264583,13.2842177 18.7660833,13.2653468 C18.6683333,13.2360968 18.552375,13.1992984 18.425875,13.19175 C17.95725,13.0964516 17.597875,13.0002097 17.2576667,12.7350726 C16.568625,12.1302581 15.962,11.3754194 15.3745417,10.6451129 L14.9519167,10.1252177 C14.1842917,9.2118629 13.2403333,7.99845968 12.7726667,6.69447581 C12.5254167,6.04154032 12.4247917,5.35275 12.4583333,4.51959677 C12.4621667,4.36108065 12.4736667,4.20633871 12.480375,4.05914516 C12.51775,3.45055645 12.55225,2.87970968 12.3500417,2.28999194 C12.0654167,1.41626613 11.364875,0.915241935 10.4295417,0.915241935 C9.800875,0.915241935 9.13770833,1.15112903 8.6365,1.54553226 C7.374375,2.40793548 6.5665,4.04404839 6.46491667,5.92359677 C6.41220833,6.98131452 6.73804167,7.88806452 7.05620833,8.76556452 C7.32933333,9.52889516 7.59191667,10.2507097 7.58808333,11.0281935 C7.58425,12.2114032 6.54733333,12.5397581 5.080125,12.8747177 C4.919125,12.9115161 4.76195833,12.9492581 4.63833333,12.9822823 C4.46966667,13.0115323 4.29716667,13.0370081 4.125625,13.0672016 C3.0245,13.2474194 1.77770833,13.4540565 0.875916667,14.3013629 C0.194541667,14.9646774 -0.131291667,16.0667419 0.048875,17.1027581 C0.180166667,17.8509919 0.553916667,18.4661855 1.09345833,18.8313387 C0.752291667,20.1032419 1.38479167,21.5808387 2.613375,22.3734194 C2.49358333,22.9480403 2.60570833,23.5972016 2.93154167,24.2048468 C3.29475,24.8832581 3.87070833,25.4173065 4.51854167,25.6682903 C4.51854167,26.832629 5.327375,27.8469435 6.59620833,28.2036048 C6.95175,28.274371 7.33316667,28.3073952 7.76729167,28.3073952 C8.41129167,28.3073952 9.059125,28.2337984 9.68108333,28.1639758 C9.89,28.1413306 10.0960417,28.119629 10.335625,28.0932097 C10.7026667,28.0196129 11.0840833,27.9714919 11.4702917,27.9243145 C12.267625,27.8205242 13.087,27.7176774 13.82875,27.4044194 C14.4315417,27.1392823 14.9624583,26.7590323 15.4722917,26.3910484 C15.64,26.2693306 15.8048333,26.1513871 15.9735,26.0372177 C16.1383333,25.9192742 16.307,25.7673629 16.4785417,25.6060161 C16.7746667,25.3333306 17.0775,25.0493226 17.373625,24.9936532 C17.63525,24.9455323 17.8863333,24.9162823 18.12975,24.8908065 C18.3990417,24.8615565 18.661625,24.8351371 18.9194167,24.7832419 L19.046875,24.7832419 C19.32,24.7832419 19.616125,24.7983387 19.926625,24.8172097 C20.2783333,24.8389113 20.645375,24.8615565 21.0085833,24.8615565 C21.8998333,24.8615565 23.0191667,24.7464435 23.7407917,23.8736613 C24.8045417,22.6310081 24.957875,20.7363629 24.9655417,18.8794597 L24.9655417,18.7983145 C24.9799167,17.4339435 24.9914167,15.3704032 23.7599583,14.2938145 L23.7599583,14.2938145 Z M19.7129167,21.7610565 C19.4397917,22.7451774 18.9012083,23.1509032 17.7627083,23.25375 C17.4071667,23.25375 16.9730417,23.25375 16.5647917,23.5009597 C16.1306667,23.6189032 15.7827917,23.9434839 15.4684583,24.2312661 C15.3486667,24.3454355 15.228875,24.4558306 15.1157917,24.54075 C14.9662917,24.6511452 14.8129583,24.7653145 14.6557917,24.8794839 C14.1842917,25.2333145 13.693625,25.5984677 13.2595,25.8079355 C12.9940417,25.8749274 12.69025,25.9409758 12.39125,26.0070242 L11.8066667,26.1362903 C10.5867083,26.35425 9.32170833,26.4684194 8.1305,26.5712661 C7.72991667,26.5712661 7.31495833,26.5712661 6.89904167,26.4646452 C6.66329167,26.4344516 6.49079167,26.3278306 6.3825,26.1513871 C6.233,25.9079516 6.21766667,25.5427984 6.34129167,25.2219919 C6.43904167,25.0012016 6.419875,24.7653145 6.29241667,24.57 C6.09404167,24.2718387 5.701125,24.1387984 5.39829167,24.1387984 L5.35708333,24.1387984 L5.31970833,24.150121 C5.28233333,24.1567258 5.24879167,24.1605 5.21141667,24.1605 C4.96416667,24.1605 4.70925,23.9576371 4.53004167,23.6189032 C4.30483333,23.1914758 4.275125,22.6715806 4.43995833,22.4394677 C4.62683333,22.2224516 4.65654167,21.9054194 4.522375,21.6138629 C4.39875,21.3562742 4.177375,21.1902097 3.93395833,21.1609597 C3.35416667,20.9656452 2.97945833,20.6080403 2.81845833,20.1060726 C2.7025,19.6824194 2.73316667,19.1964919 2.93154167,18.964379 C3.12225,18.6539516 3.16729167,18.2935161 3.05133333,18.0019597 C2.95358333,17.7660726 2.75520833,17.5924597 2.45908333,17.5113145 C1.909,17.4122419 1.74416667,16.9734919 1.70295833,16.6158871 C1.61383333,15.960121 2.12270833,15.462871 2.601875,15.2269839 C3.33883333,14.8212581 4.23775,14.6778387 5.10983333,14.53725 C5.5775,14.459879 6.05666667,14.3825081 6.51379167,14.2683387 C8.07875,13.8701613 9.19808333,12.66525 9.306375,11.2754032 C9.381125,10.2544839 9.05529167,9.31470968 8.737125,8.40795968 C8.46783333,7.64179839 8.21675,6.91526613 8.19470833,6.15193548 C8.17170833,5.41502419 8.38925,4.60074194 8.80516667,3.82325806 C9.20479167,3.21089516 9.875625,2.55135484 10.4065417,2.55135484 C10.4372083,2.55135484 10.4630833,2.55512903 10.485125,2.55512903 C10.8147917,2.60325 10.8032917,3.21844355 10.7659167,3.78929032 L10.7592083,3.93365323 C10.7103333,4.87342742 10.6911667,5.66600806 10.9087083,6.5831371 C11.2115417,7.82956452 11.934125,8.84293548 12.627,9.81950806 C12.7765,10.0336935 12.9298333,10.2469355 13.0831667,10.4686694 C13.7386667,11.3933468 14.5695417,12.4029435 15.4722917,13.3691371 C15.6438333,13.572 15.8316667,13.7965645 16.05975,13.9475323 C16.1191667,14.0579274 16.2015833,14.117371 16.2801667,14.146621 C16.84175,14.5702742 17.4445417,14.8174839 18.2045,14.9392016 C18.7584167,15.0420484 19.23375,15.1269677 19.4733333,15.5289194 C19.9563333,16.3658468 19.9678333,17.5188629 19.9793333,18.4444839 L19.9831667,18.6615 C19.9975417,19.6418468 19.989875,20.7703306 19.7129167,21.7610565 L19.7129167,21.7610565 Z M23.2434167,18.5143065 L23.2395833,18.8756855 C23.24725,20.2985565 23.1571667,21.7544516 22.45375,22.7602742 C22.2141667,23.117879 21.7426667,23.1433548 21.0948333,23.1433548 L21.0267917,23.1433548 C21.39,22.4139919 21.5327917,21.5657419 21.6219167,20.7958065 C21.772375,19.3984113 21.7570417,18.0274355 21.574,16.7262823 C21.4954167,16.1554355 21.3717917,15.5326935 21.0948333,14.976 C21.6190417,15.0345 22.157625,15.1750887 22.565875,15.5175968 C23.261625,16.0931613 23.2510833,17.5490565 23.2434167,18.5143065 L23.2434167,18.5143065 Z" id="Fill-1" fill="#F27A1A" mask="url(#mask-2)"></path>
                            </g>
                        </g>
                    </g>
                </g>
            </g>
        </g>
    </g>
</svg>