<?xml version="1.0" encoding="utf-8"?>
<!-- Generator: Adobe Illustrator 19.2.1, SVG Export Plug-In . SVG Version: 6.00 Build 0)  -->
<svg version="1.1" id="Layer_1" xmlns="http://www.w3.org/2000/svg" xmlns:xlink="http://www.w3.org/1999/xlink" x="0px" y="0px"
	 viewBox="0 0 1052.1 287.3" style="enable-background:new 0 0 1052.1 287.3;" xml:space="preserve">
<style type="text/css">
	.st0{fill:#231F20;}
	.st1{fill:url(#SVGID_1_);}
	.st2{fill:#FFFFFF;}
	.st2{fill:#FFFFFF;}
	.st3{fill:#898A8A;}
</style>
<title>Untitled-1</title>
<path class="st0" d="M302.9,200.1h-96c4.4,18,19,31.6,38,31.6c10.8,0,21-4.5,28.3-12.5l23.2,0.5c-10.1,19.6-30.3,31.9-52.3,31.8
	c-33,0-58.9-28.6-58.9-61c0-33.4,25.5-60.8,59.4-60.8c32.8,0,59,27,59,59.6C303.5,192.9,303.3,196.5,302.9,200.1L302.9,200.1z
	 M244.3,149.5c-18.8,0-36.2,14.8-37.4,33.9h74.8C280.5,164.4,263.2,149.5,244.3,149.5L244.3,149.5L244.3,149.5z"/>
<path class="st0" d="M399,248.7v-62.9c0-19.6-5.8-36.2-28.8-36.2c-21.3,0-30.5,16.5-30.5,36v63.1h-21.7V132.9h20.3v12.3h0.4
	c8.3-11.1,20.5-15.5,33.9-15.5c16.5,0,32,6.5,41,20.7c5.6,8.8,7.3,19.4,7.3,29.7v68.6H399z"/>
<path class="st0" d="M536.3,248.7v-16.5h-0.4c-9.6,13.4-24.9,19.4-41,19.4c-34.7,0-60.2-25.9-60.2-60.4c0-34.7,25.1-61.5,60.2-61.5
	c14.6,0,30.1,5.6,39.3,17.3h0.4V93.9h21.8v154.7H536.3z M496.1,149.6c-23,0-39.7,18.8-39.7,41.4c0,21.7,17.4,40.8,39.5,40.8
	c22.3-0.1,40.4-18.2,40.3-40.6c0-0.1,0-0.1,0-0.2C536.3,167.8,519.8,149.6,496.1,149.6L496.1,149.6L496.1,149.6z"/>
<polygon class="st0" points="619.2,287.3 596.7,287.3 613.6,246.4 567.4,132.9 590.8,132.9 624.9,222.7 659.8,132.9 683.2,132.9 
	619.2,287.3 "/>
<path class="st0" d="M745.1,251.6c-34.1,0-62.5-27.4-62.5-61.7c0-34.1,29.1-60.2,62.5-60.2c33.9,0,62.5,26.3,62.5,60.6
	C807.6,223.3,780.2,251.6,745.1,251.6L745.1,251.6z M745.1,149.6c-22.6,0-40.8,18.4-40.8,40.9c0,0,0,0,0,0.1
	c0,22.6,18.2,41.2,40.8,41.2c22.8,0,40.8-18.8,40.8-41.4c0-22.5-18.1-40.7-40.6-40.8C745.2,149.6,745.1,149.6,745.1,149.6
	L745.1,149.6L745.1,149.6z"/>
<polygon class="st0" points="825.3,248.7 825.3,94 847.1,94 847.1,248.7 825.3,248.7 "/>
<path class="st0" d="M21.5,225.8c0.7,3.2,1.9,6.2,3.5,9c1.4,2.3,3.2,4.4,5.3,6.2c6.9,6,15.6,9.1,25.9,9.1c10,0.1,19.8-2.5,28.5-7.3
	V222c-9,5.3-17.6,8-25.7,8c-11,0-16.6-6.7-16.6-20v-56.7h36.5v-20.1H42.4V96H20.9v37.1H0v20.1h20v51.4C20,215,20.5,222.1,21.5,225.8
	L21.5,225.8L21.5,225.8z"/>
<path class="st0" d="M153,152.3c6.7,0,14.1,3.7,22,11.1l11.8-19.6c-9.6-8.8-21.2-12.8-28-12.8h-1.5c-7.8,0-20.8,0-31.4,17.2
	l-0.4,0.7l0.1-15.6h-22.5V248h22.5v-60c-0.2-9,2.7-17.9,8.1-25.1C139.1,155.9,145.6,152.3,153,152.3L153,152.3L153,152.3z"/>
<linearGradient id="SVGID_1_" gradientUnits="userSpaceOnUse" x1="1247.2856" y1="-159.16" x2="1048.6108" y2="-159.16" gradientTransform="matrix(1 0 0 -1 -435.13 -105.88)">
	<stop  offset="0" style="stop-color:#BBBABA"/>
	<stop  offset="1" style="stop-color:#898A8A"/>
</linearGradient>
<path class="st1" d="M622.2,106.6c-1,0.1-2-0.6-2.2-1.6l-5.8-36.5c-1.9-11.9-0.1-21.8,6.2-29.9s15.2-12.8,26.8-14.7L798.4,0
	c1-0.1,2,0.6,2.2,1.6l11.6,72.9c0.1,1-0.6,2-1.6,2.2L622.2,106.6L622.2,106.6L622.2,106.6z"/>
<path class="st2" d="M672.8,68c-1.1,4.5-4.9,7.9-9.6,8.6c-6.1,1-13.1-2.6-14.5-11.4c-1.3-7.9,2.9-14.2,10.2-15.4
	c4.8-0.8,8.8,1,11.8,5.2l7.3-1.2c-3.3-7.1-11.9-11.4-20.1-10c-10.8,1.8-17.6,11.4-15.8,22.4s11.3,18.1,22,16.3
	c8.1-1.3,14.5-7.6,15.9-15.8L672.8,68L672.8,68L672.8,68z"/>
<path class="st2" d="M700.9,36.8c-11,1.8-18.5,11.8-16.7,22.4c1.8,11,12.2,18.4,23.2,16.5c10.8-1.8,18.2-12,16.6-22.9
	C722.2,42.2,711.9,35,700.9,36.8L700.9,36.8L700.9,36.8z M706.3,69.6c-7.4,1.3-14.4-3.7-15.7-11.1c-1.3-7.4,3.7-14.4,11.1-15.7
	s14.4,3.7,15.7,11.1c0,0,0,0,0,0C718.7,61.3,713.7,68.3,706.3,69.6C706.3,69.6,706.3,69.6,706.3,69.6L706.3,69.6z"/>
<path class="st2" d="M788.6,61.3L785,39c-1.6-9.8-8.2-14.6-17.5-13.1c-5.7,0.9-9.1,3.4-11.1,8.1l-0.2,0.4l-0.2-0.3
	c-2.7-3.9-8.3-4.9-12.4-4.3c-4.7,0.8-7.2,2.5-9.7,6.7l-0.1,0.1l-0.4,0.1l-0.7-4l-6,1l6,36.8l6.6-1.1L736,48.8
	c-1.3-7.6,1.2-11.8,7.6-12.8c2.8-0.6,5.8,0.3,7.7,2.4c2,2.3,2.4,4.7,2.8,7.5l3.3,20.5l6.6-1.1l-3.4-20.5c-0.9-5.3-0.8-11.5,7.2-12.8
	c5.9-1,9.7,2.5,10.9,9.9l3.3,20.5L788.6,61.3L788.6,61.3L788.6,61.3z"/>
<path class="st2" d="M641,82.9c0,2.9-2.4,5.3-5.3,5.3c-2.9,0-5.3-2.4-5.3-5.3c0-2.9,2.4-5.3,5.3-5.3C638.7,77.6,641,80,641,82.9
	C641,82.9,641,82.9,641,82.9L641,82.9z"/>
<path class="st3" d="M867.9,172.5h43.5v8h-33.8v23.7H906v8.2h-28.5v27.4h35v8.2h-44.7V172.5z"/>
<path class="st3" d="M923.9,166.1h9.4v71.3c0,3,1.3,4.1,2.6,4.1c0.7,0,1.4-0.1,2.1-0.2l1.3,7.1c-1.7,0.7-3.6,1-5.4,0.9
	c-7.1,0-10-4.5-10-12.7L923.9,166.1L923.9,166.1z"/>
<path class="st3" d="M948,174.5c0-3.7,2.9-6.1,6.6-6.1s6.6,2.4,6.6,6.1s-2.9,6.1-6.6,6.1S948,178.1,948,174.5z M949.7,192.1h9.4V248
	h-9.4V192.1L949.7,192.1z"/>
<path class="st3" d="M976.2,199.8h-8.3v-7.1l8.7-0.6l1.2-15.6h7.9v15.7h15.1v7.7h-15.1v31c0,6.9,2.2,10.8,8.6,10.8
	c2.2-0.2,4.3-0.7,6.3-1.5l1.8,7.1c-3.3,1.2-6.8,1.9-10.3,2.1c-12,0-16-7.6-16-18.6L976.2,199.8L976.2,199.8z"/>
<path class="st3" d="M1029.8,190.7c14.3,0,22.3,10.2,22.3,26.2c0,1.7-0.1,3.5-0.3,5.2H1014c0.7,12.1,7.9,19.7,18.6,19.7
	c5-0.1,9.8-1.6,13.9-4.4l3.3,6.2c-5.4,3.7-11.8,5.7-18.4,5.8c-15,0-26.8-10.9-26.8-29.2S1017,190.7,1029.8,190.7z M1043.8,215.9
	c0-11.4-5.1-17.7-13.8-17.7c-7.8,0-15,6.4-16.1,17.7H1043.8z"/>
</svg>
