<?xml version="1.0" encoding="UTF-8"?>
<svg width="16px" height="14px" viewBox="0 0 16 14" version="1.1" xmlns="http://www.w3.org/2000/svg" xmlns:xlink="http://www.w3.org/1999/xlink">
    <!-- Generator: Sketch 40.3 (33839) - http://www.bohemiancoding.com/sketch -->
    <title>Capa_1</title>
    <desc>Created with Sketch.</desc>
    <defs></defs>
    <g id="Login-Sign-up" stroke="none" stroke-width="1" fill="none" fill-rule="evenodd">
        <g id="2_1---Sign-Up-" transform="translate(-747.000000, -507.000000)" fill="#F27A1A">
            <g id="bridal-shoe" transform="translate(747.000000, 507.000000)">
                <g id="Capa_1" transform="translate(0.000000, 0.000000)">
                    <path d="M15.4677962,5.81069447 C16.2091582,4.45980724 16.118992,3.03510759 15.2066917,1.6900857 C14.5335764,0.697686476 13.6546059,0.104626123 13.6175442,0.079884296 C13.5001823,0.00161090359 13.3432708,0.00706319267 13.2321716,0.0934324083 C12.1522359,0.932919705 10.9629598,2.33114272 9.88336729,4.03056339 C8.89042359,5.59355293 8.13280429,7.20491088 7.85668633,8.34092835 C7.66421448,9.13283203 7.2197748,9.51775538 6.49814477,9.51775538 L6.49801609,9.51775538 C5.94247721,9.51771408 5.43292225,9.28566135 5.42846113,9.28359609 C5.35112064,9.24753663 5.26202681,9.24270392 5.18108311,9.27029581 C5.14788204,9.28157213 4.94129759,9.35187362 4.63390885,9.45691279 C4.65497051,9.32184472 4.64733512,9.18343093 4.60594102,9.04794981 C4.47034853,8.60470349 4.01063807,8.30689285 3.46209115,8.30689285 C3.31946381,8.30689285 3.17619303,8.3270498 3.03618231,8.36674411 C2.71335121,8.45831779 2.43787668,8.64571957 2.26050402,8.8944183 C2.07180697,9.15910215 2.01346917,9.47401315 2.10050402,9.75839959 C2.15635389,9.94105128 2.26783914,10.0984242 2.41732976,10.2210181 C1.74811796,10.4545165 1.14530831,10.6686427 0.86644504,10.7775646 C0.267882038,11.0113521 0,11.5553832 0,11.9908228 C0,12.7257666 0.700010724,13.0891286 1.12536193,13.1916069 C1.30457909,13.2488146 2.80917962,13.6956958 6.04534048,13.6956132 C6.45228954,13.6956132 6.87558177,13.6883848 7.30342091,13.6741345 C9.78908311,13.5913175 10.1456729,12.3615785 10.5231957,11.0595966 C10.5790885,10.8668665 10.6368257,10.6676101 10.7025845,10.4660819 C11.0302627,9.46083679 12.0765255,8.33328688 12.7245469,7.70445621 L12.7245469,13.0184141 C12.7245469,13.1895416 12.8685898,13.3282033 13.0462627,13.3282033 L14.2746595,13.3282033 C14.3610938,13.3282033 14.443882,13.2947047 14.5044075,13.2352665 C14.5648901,13.1758283 14.5980483,13.0954483 14.5963324,13.0122596 C14.5956461,12.9812394 14.5326756,9.89590467 14.5959893,8.65827636 C14.6549705,7.50804989 15.415378,5.91887284 15.4677962,5.81069447 L15.4677962,5.81069447 Z M13.9532869,8.62771049 C13.9003968,9.66261279 13.9324826,11.8809096 13.9470241,12.708625 L13.3679786,12.708625 L13.3679786,6.97975612 C13.3679786,6.85807094 13.2939839,6.74766209 13.1788525,6.69747625 C13.0637212,6.64741432 12.9287292,6.66674516 12.8338016,6.74712512 C12.7439357,6.82325064 10.6267024,8.63002359 10.0886649,10.2804976 C10.0199035,10.4914846 9.96075067,10.6955737 9.90352815,10.8929301 C9.52476139,12.199249 9.29612869,12.9877656 7.28120107,13.0549279 C6.86078284,13.0689304 6.44499732,13.0760349 6.04538338,13.0760349 C2.78991957,13.0761175 1.33503485,12.6058989 1.3213941,12.6013966 C1.3110992,12.597927 1.30058981,12.5949943 1.28995174,12.592516 C1.28347453,12.591029 0.643431635,12.4315908 0.643431635,11.9908228 C0.643431635,11.9721529 0.648707775,11.5312196 1.10828954,11.3517072 C1.46959786,11.2105672 2.41732976,10.8785146 3.33010188,10.5628601 C3.39547453,10.588428 3.55363003,10.6500554 3.56958713,10.6567055 C3.82001072,10.7611251 5.14028954,11.2832231 6.50093298,11.2832231 C7.01306166,11.2832231 7.53115282,11.2092042 7.99974263,11.0111043 C8.72424665,10.7048261 9.22873995,10.150097 9.4992815,9.36228253 C10.004118,7.89222974 10.8519893,6.20846374 11.8255013,4.74278931 C12.7685147,3.32304628 13.7071957,2.28975489 14.4985737,1.79425746 C14.5561823,1.86951557 14.612933,1.94766505 14.6679678,2.02887111 C15.4570724,3.19223264 15.5336408,4.3692249 14.8956139,5.52709283 C14.8932976,5.53126466 14.8911528,5.53543648 14.8890938,5.53964962 C14.8536193,5.61172723 14.0204611,7.31837632 13.9532869,8.62771049 L13.9532869,8.62771049 Z M5.27652547,9.89495465 C5.49696515,9.98049776 5.97258981,10.1372924 6.49797319,10.1373337 L6.49814477,10.1373337 C7.51875603,10.1373337 8.22374263,9.5495191 8.48317426,8.48210959 C8.99723324,6.36711709 11.2900804,2.52333591 13.4429169,0.731226314 C13.5993137,0.853737598 13.8348525,1.05241571 14.0869062,1.31544735 C13.2293405,1.87695051 12.2481501,2.95666897 11.2835174,4.40904313 C10.2823378,5.91635323 9.40941555,7.65088334 8.88840751,9.16785886 C8.6747882,9.79003939 8.29988204,10.2072221 7.74241287,10.4433228 C6.60435389,10.9252721 5.02091153,10.5061067 4.2512815,10.245636 C4.71305094,10.0871478 5.09293298,9.95753206 5.27652547,9.89495465 L5.27652547,9.89495465 Z M2.79094906,9.24509962 C2.88347453,9.11527731 3.03914209,9.01180774 3.21797319,8.96104362 C3.29891689,8.93807792 3.38101877,8.92642985 3.46204826,8.92642985 C3.72276676,8.92642985 3.93445576,9.04563671 3.9886756,9.22296002 C4.06194102,9.46269552 3.83283646,9.74774285 3.48842895,9.84542969 C3.40752815,9.86835409 3.32542627,9.87996086 3.24443968,9.87996086 C2.98359249,9.87996086 2.77190349,9.7607953 2.71768365,9.58330677 C2.6738445,9.43997765 2.74475067,9.30986621 2.79094906,9.24509962 L2.79094906,9.24509962 Z" id="Shape"></path>
                </g>
            </g>
        </g>
    </g>
</svg>