<?xml version="1.0" encoding="UTF-8"?>
<svg width="14px" height="14px" viewBox="0 0 14 14" version="1.1" xmlns="http://www.w3.org/2000/svg" xmlns:xlink="http://www.w3.org/1999/xlink">
    <!-- Generator: Sketch 40.3 (33839) - http://www.bohemiancoding.com/sketch -->
    <title>Fill 1</title>
    <desc>Created with Sketch.</desc>
    <defs>
        <polygon id="path-1" points="9.2553844e-21 3.93738028e-05 9.2553844e-21 13.9545398 13.954426 13.9545398 13.954426 3.93738028e-05 0 3.93738028e-05"></polygon>
    </defs>
    <g id="Page-1" stroke="none" stroke-width="1" fill="none" fill-rule="evenodd">
        <g id="INT-Header" transform="translate(-173.000000, -8.000000)">
            <g id="Page-1" transform="translate(173.000000, 8.000000)">
                <mask id="mask-2" fill="white">
                    <use xlink:href="#path-1"></use>
                </mask>
                <g id="Clip-2"></g>
                <path d="M7.06836098,0.933401626 C7.06836098,0.933401626 7.07974309,0.922019512 7.0911252,0.91075122 C7.13665366,0.876491057 7.14803577,0.819580488 7.14803577,0.728523577 C7.14803577,0.64884878 7.12527154,0.614702439 7.07974309,0.591938211 C7.06836098,0.580556098 7.03421463,0.569287805 7.02283252,0.569287805 C6.99995447,0.55779187 6.97730407,0.546523577 6.95453984,0.535027642 C6.95453984,0.535027642 6.96592195,0.546523577 6.97730407,0.546523577 C8.40006829,0.535027642 9.66348293,0.944897561 10.7447837,1.75291382 C10.6992553,1.74164553 10.6309626,1.74164553 10.574052,1.74164553 C10.5512878,1.75291382 10.5285236,1.75291382 10.4943772,1.75291382 C10.4259707,1.76440976 10.3805561,1.74164553 10.3464098,1.69600325 C10.3350276,1.68473496 10.3236455,1.67323902 10.3121496,1.66185691 C10.2439707,1.57091382 10.175678,1.47985691 10.073239,1.36603577 C9.99356423,1.27486504 9.92527154,1.27486504 9.86836098,1.40018211 C9.83421463,1.4911252 9.7430439,1.53676748 9.59519024,1.52527154 C9.5610439,1.51400325 9.52689756,1.51400325 9.49275122,1.52527154 C9.34466992,1.57091382 9.20819837,1.65058862 9.07161301,1.76440976 C9.01470244,1.7985561 8.96917398,1.84397073 8.94629593,1.88949919 C8.86673496,2.00332033 8.88938537,2.09437724 9.0032065,2.17405203 C9.02608455,2.19693008 9.04884878,2.20819837 9.07161301,2.2309626 C9.20819837,2.32201951 9.21958049,2.41307642 9.12852358,2.49275122 C9.10575935,2.51551545 9.08299512,2.52689756 9.07161301,2.52689756 C8.94629593,2.56115772 8.83258862,2.54966179 8.73014959,2.49275122 C8.63909268,2.43584065 8.54803577,2.43584065 8.44559675,2.49275122 C8.33177561,2.57242602 8.28624715,2.68624715 8.3203935,2.85697886 C8.3203935,2.8911252 8.3203935,2.92527154 8.30889756,2.95953171 C8.29762927,3.02771057 8.26348293,3.06185691 8.21795447,3.07335285 C8.14966179,3.07335285 8.09275122,3.08462114 8.02434472,3.09600325 C8.00169431,3.09600325 7.97893008,3.10749919 7.96743415,3.13026341 C7.87649106,3.20982439 7.78543415,3.27823089 7.69437724,3.33514146 C7.64884878,3.34640976 7.62597073,3.36917398 7.60332033,3.40332033 C7.54640976,3.43746667 7.51214959,3.49437724 7.48949919,3.57405203 C7.46673496,3.72201951 7.48949919,3.84733659 7.56906016,3.93827967 C7.59193821,3.96115772 7.60332033,3.98392195 7.62597073,3.98392195 C7.6828813,4.01806829 7.73979187,4.05210081 7.80819837,4.09774309 C7.8309626,4.10901138 7.85361301,4.10901138 7.87649106,4.1203935 C7.93340163,4.13188943 7.96743415,4.13188943 7.97893008,4.09774309 C8.00169431,4.04083252 8.04722276,4.00657236 8.10413333,3.98392195 C8.14966179,3.94966179 8.17242602,3.90424715 8.17242602,3.87010081 C8.19507642,3.74478374 8.25198699,3.67660488 8.36580813,3.67660488 C8.38868618,3.67660488 8.41145041,3.67660488 8.43421463,3.66510894 C8.46836098,3.6309626 8.51388943,3.60819837 8.55941789,3.57405203 C8.59345041,3.56278374 8.61632846,3.53990569 8.65036098,3.51714146 C8.73014959,3.43746667 8.82109268,3.40332033 8.92364553,3.40332033 C9.01470244,3.39205203 9.06011707,3.43746667 9.06011707,3.5286374 C9.06011707,3.5512878 9.06011707,3.57405203 9.07161301,3.60819837 C9.16266992,3.75627967 9.29925528,3.79042602 9.49275122,3.72201951 C9.51540163,3.7106374 9.53827967,3.68787317 9.54966179,3.64245854 C9.5610439,3.58554797 9.5723122,3.51714146 9.59519024,3.43746667 C9.70901138,3.4489626 9.78868618,3.50587317 9.85686504,3.60819837 C9.86836098,3.61969431 9.87974309,3.6309626 9.87974309,3.64245854 C9.87974309,3.72201951 9.8911252,3.77893008 9.91377561,3.83584065 C9.92527154,3.85860488 9.93665366,3.88136911 9.95941789,3.89275122 C9.98218211,3.96115772 10.0163285,4.01806829 10.0504748,4.05210081 C10.1301496,4.16592195 10.2325886,4.1888 10.3464098,4.14315772 C10.3919382,4.1203935 10.4259707,4.10901138 10.4602309,4.09774309 C10.5397919,4.09774309 10.6081984,4.08624715 10.6878732,4.07497886 C10.7561659,4.06348293 10.8358407,4.06348293 10.9041333,4.07497886 C10.9381659,4.07497886 10.9610439,4.07497886 10.9838081,4.09774309 C11.0862472,4.13188943 11.1773041,4.20006829 11.2455967,4.31388943 C11.2569789,4.32538537 11.268361,4.33665366 11.268361,4.35953171 C11.2796293,4.46185691 11.2796293,4.57567805 11.268361,4.68949919 L11.268361,4.76917398 C11.268361,4.81481626 11.2455967,4.83758049 11.2114504,4.83758049 C11.1088976,4.83758049 11.0065724,4.84884878 10.9041333,4.84884878 C10.7903122,4.86023089 10.6992553,4.84884878 10.6081984,4.80332033 C10.5854341,4.79193821 10.5626699,4.76917398 10.5512878,4.75790569 C10.5171415,4.68949919 10.4602309,4.64408455 10.3919382,4.60993821 C10.266735,4.54153171 10.1642959,4.55302764 10.0845073,4.65535285 C10.0504748,4.68949919 10.0163285,4.72375935 9.98218211,4.76917398 C9.92527154,4.83758049 9.85686504,4.87172683 9.78868618,4.87172683 C9.66348293,4.87172683 9.5610439,4.81481626 9.48136911,4.70099512 C9.45849106,4.66684878 9.44722276,4.63258862 9.43584065,4.60993821 C9.35616585,4.4504748 9.25372683,4.32538537 9.11702764,4.23421463 C8.96917398,4.13188943 8.80982439,4.10901138 8.62771057,4.14315772 C8.51388943,4.15465366 8.46836098,4.21156423 8.4911252,4.31388943 C8.50250732,4.38229593 8.47962927,4.41644228 8.44559675,4.41644228 C8.33177561,4.4392065 8.25198699,4.39356423 8.20657236,4.27974309 C8.20657236,4.2684748 8.19507642,4.25697886 8.17242602,4.25697886 C8.03584065,4.24571057 7.92201951,4.25697886 7.8309626,4.31388943 C7.79670244,4.33665366 7.7512878,4.35953171 7.69437724,4.38229593 C7.64884878,4.38229593 7.60332033,4.41644228 7.5805561,4.46185691 C7.48949919,4.63258862 7.40982439,4.81481626 7.31876748,5.0309626 C7.28450732,5.07649106 7.26185691,5.12213333 7.22759675,5.14478374 C7.12527154,5.22445854 7.01145041,5.28136911 6.90901138,5.31551545 C6.80657236,5.34977561 6.72689756,5.39519024 6.65849106,5.45210081 C6.61307642,5.47486504 6.56754797,5.50901138 6.52201951,5.53177561 C6.45372683,5.57741789 6.43084878,5.64559675 6.45372683,5.73665366 C6.47649106,5.88462114 6.49925528,6.03270244 6.53340163,6.19193821 C6.53340163,6.21470244 6.53340163,6.23758049 6.54466992,6.26034472 C6.54466992,6.33990569 6.53340163,6.41958049 6.49925528,6.48798699 C6.47649106,6.5106374 6.47649106,6.53340163 6.46510894,6.55616585 C6.46510894,6.63595447 6.46510894,6.71562927 6.47649106,6.78380813 C6.48775935,6.85210081 6.52201951,6.92050732 6.55616585,6.97741789 C6.5903122,7.02283252 6.62445854,7.06836098 6.65849106,7.12527154 C6.80657236,7.37579187 6.9430439,7.60343415 7.07974309,7.79693008 C7.0911252,7.81958049 7.11377561,7.84234472 7.13665366,7.86510894 C7.17068618,7.9903122 7.27323902,8.04722276 7.43258862,8.03584065 L7.5008813,8.03584065 C7.79670244,8.03584065 8.08125528,8.01307642 8.36580813,7.97893008 C8.40006829,7.96766179 8.43421463,7.95616585 8.47962927,7.93340163 C8.4911252,7.93340163 8.50250732,7.92201951 8.51388943,7.92201951 C8.62771057,7.91075122 8.74153171,7.89925528 8.85535285,7.88798699 C8.87811707,7.88798699 8.9008813,7.88798699 8.92364553,7.87649106 C9.01470244,7.86510894 9.07161301,7.89925528 9.09437724,7.97893008 C9.12852358,8.09275122 9.17393821,8.18380813 9.23084878,8.28636098 C9.3106374,8.42294634 9.3903122,8.55941789 9.46998699,8.70749919 C9.48136911,8.71876748 9.49275122,8.74164553 9.49275122,8.76440976 C9.53827967,8.88949919 9.53827967,9.02619837 9.51540163,9.18543415 C9.51540163,9.20819837 9.50413333,9.2309626 9.49275122,9.25384065 C9.43584065,9.7091252 9.42445854,10.1644098 9.46998699,10.6424585 C9.48136911,10.8016943 9.48136911,10.972426 9.45849106,11.1203935 C9.45849106,11.2115642 9.45849106,11.3026211 9.46998699,11.3822959 C9.46998699,11.4164423 9.46998699,11.4392065 9.49275122,11.4618569 C9.53827967,11.5642959 9.5723122,11.6781171 9.58380813,11.8033203 C9.59519024,11.8717268 9.62922276,11.9286374 9.68613333,11.9626699 C9.69762927,11.974052 9.7203935,11.985548 9.75453984,11.985548 L9.7430439,11.985548 L9.78868618,11.985548 C10.0618569,12.0195805 10.3121496,11.985548 10.5397919,11.8829951 C10.6195805,11.8488488 10.6878732,11.7919382 10.7561659,11.7122634 C10.7674341,11.6894992 10.7903122,11.6553528 10.8016943,11.6212065 C10.8358407,11.575678 10.869987,11.5415317 10.9155154,11.5073854 C11.1317756,11.3253854 11.2911252,11.1090114 11.3934504,10.8586049 C11.4163285,10.8016943 11.450361,10.7447837 11.4846211,10.6993691 C11.5187675,10.6766049 11.5301496,10.6424585 11.5415317,10.5968163 C11.6439707,10.2213203 11.7805561,9.86836098 11.9625561,9.51551545 C11.974052,9.50424715 11.9854341,9.49275122 11.9968163,9.48148293 C12.0763772,9.39042602 12.1106374,9.27660488 12.0878732,9.14001951 C12.0763772,9.07161301 12.0763772,9.00332033 12.0878732,8.95779187 C12.0992553,8.9008813 12.1106374,8.85546667 12.1106374,8.80982439 C12.1220195,8.77567805 12.1332878,8.75291382 12.1447837,8.73014959 C12.1901984,8.60494634 12.2471089,8.47985691 12.2927512,8.35453984 C12.3382797,8.2407187 12.4065724,8.17253984 12.5203935,8.14966179 C12.5316618,8.14966179 12.5431577,8.14966179 12.5545398,8.1383935 C12.7366537,8.01307642 12.8618569,7.83107642 12.9415317,7.5692878 C12.9415317,7.54652358 12.9529138,7.52364553 12.9529138,7.5008813 C12.9869463,7.34164553 12.9300358,7.2504748 12.7935642,7.20506016 C12.7593041,7.20506016 12.7252715,7.18218211 12.7023935,7.15941789 C12.6797431,7.11400325 12.6114504,7.11400325 12.5316618,7.13665366 C12.4976293,7.14814959 12.4634829,7.15941789 12.4293366,7.18218211 C12.4178407,7.19356423 12.3951902,7.19356423 12.372426,7.19356423 C12.3268976,7.19356423 12.3155154,7.17091382 12.3155154,7.12527154 C12.3155154,7.10250732 12.3040195,7.09123902 12.2927512,7.07974309 C12.2358407,7.00018211 12.2016943,6.89762927 12.1789301,6.78380813 C12.1561659,6.64722276 12.2130764,6.60180813 12.372426,6.64722276 C12.4407187,6.66998699 12.4976293,6.70413333 12.5431577,6.7610439 C12.565922,6.77253984 12.5885724,6.79519024 12.6000683,6.81795447 C12.668361,6.90901138 12.7480358,6.95453984 12.8504748,6.97741789 L12.8731252,6.94327154 C12.9300358,6.85210081 12.9869463,6.74977561 13.066735,6.62445854 C13.1236455,6.54489756 13.1236455,6.46522276 13.066735,6.37416585 C13.066735,6.36266992 13.0553528,6.35140163 13.0553528,6.33990569 C12.9869463,6.22608455 12.9415317,6.13502764 12.9073854,6.03270244 C12.8960033,6.00993821 12.8960033,5.98706016 12.9073854,5.97579187 C12.9187675,5.94153171 12.9529138,5.9188813 13.0098244,5.9188813 C13.0781171,5.90738537 13.1236455,5.9188813 13.1350276,5.94153171 C13.1464098,5.96429593 13.169174,5.96429593 13.1919382,5.97579187 C13.2374667,5.98706016 13.2943772,5.99844228 13.3512878,6.0212065 C13.3853203,6.32852358 13.4081984,6.64722276 13.4081984,6.97741789 C13.4081984,8.74164553 12.7821821,10.2553528 11.5187675,11.5073854 C10.266735,12.7708 8.75291382,13.3968163 6.97730407,13.4083122 C5.58868618,13.3968163 4.34803577,13.0099382 3.26673496,12.2359545 C3.26673496,12.2244585 3.26673496,12.2131902 3.27811707,12.2131902 C3.28949919,12.1790439 3.30076748,12.167548 3.32364553,12.1562797 C3.40332033,12.1221333 3.43746667,12.0424585 3.42597073,11.9514016 C3.42597073,11.8944911 3.41458862,11.8488488 3.40332033,11.8033203 L3.40332033,11.7579057 C3.39193821,11.7350276 3.3805561,11.7237593 3.36906016,11.7122634 C3.34640976,11.7009951 3.33502764,11.6668488 3.33502764,11.6099382 C3.33502764,11.5302634 3.34640976,11.4504748 3.3805561,11.3822959 C3.42597073,11.2228325 3.49437724,11.0862472 3.58532033,10.983922 C3.6309626,10.9270114 3.72201951,10.8813691 3.83584065,10.8586049 C3.85860488,10.8586049 3.89275122,10.8586049 3.90413333,10.8473366 C3.9610439,10.8131902 4.00657236,10.790426 4.07486504,10.767548 C4.15442602,10.7447837 4.18868618,10.6878732 4.18868618,10.5968163 C4.17730407,10.574052 4.16592195,10.5512878 4.15442602,10.5399057 C4.13177561,10.5058732 4.1203935,10.4602309 4.13177561,10.4148163 C4.14315772,10.1644098 4.15442602,9.91388943 4.18868618,9.66348293 C4.18868618,9.62933659 4.18868618,9.59530407 4.20006829,9.54966179 C4.21133659,9.41307642 4.23421463,9.29925528 4.27974309,9.21969431 C4.33665366,9.10587317 4.32515772,9.01470244 4.24559675,8.9692878 C4.22283252,8.94640976 4.20006829,8.92364553 4.18868618,8.91237724 C4.16592195,8.88949919 4.14315772,8.87823089 4.13177561,8.86673496 C4.10901138,8.84397073 4.08624715,8.83258862 4.07486504,8.82132033 C3.88125528,8.74164553 3.67649106,8.66185691 3.46023089,8.60494634 C3.43746667,8.60494634 3.41458862,8.59367805 3.39193821,8.60494634 C3.20982439,8.61632846 3.0731252,8.53676748 2.99356423,8.37730407 C3.06185691,8.27486504 3.0731252,8.19530407 3.00494634,8.10413333 C2.98218211,8.06998699 2.97068618,8.03584065 2.94803577,8.01307642 C2.91377561,7.94489756 2.86836098,7.88798699 2.79995447,7.81958049 C2.69762927,7.72852358 2.5723122,7.64884878 2.45849106,7.60343415 C2.41307642,7.59193821 2.37893008,7.5805561 2.35616585,7.55779187 C2.23084878,7.47811707 2.12852358,7.38706016 2.04873496,7.26197073 C1.9008813,7.05709268 1.74153171,6.86359675 1.58218211,6.68136911 C1.55941789,6.66998699 1.54792195,6.64722276 1.51388943,6.64722276 C1.37719024,6.63595447 1.26336911,6.69286504 1.18380813,6.81795447 C1.17242602,6.85210081 1.14954797,6.87486504 1.13816585,6.88636098 C1.0926374,6.92050732 1.06998699,6.97741789 1.08125528,7.04559675 C1.08125528,7.20506016 1.04722276,7.35291382 0.97881626,7.48961301 C0.967434146,7.51237724 0.956165854,7.54652358 0.94478374,7.5805561 C0.887873171,7.74001951 0.842344715,7.88798699 0.819580488,8.0587187 C0.808084553,8.11562927 0.808084553,8.18380813 0.830962602,8.2407187 C0.842344715,8.35453984 0.864995122,8.45709268 0.887873171,8.58218211 C0.933401626,8.77567805 1.03572683,8.93514146 1.18380813,9.07161301 C1.19507642,9.08310894 1.20645854,9.08310894 1.21795447,9.08310894 C1.29762927,9.09437724 1.34315772,9.12852358 1.38868618,9.18543415 C1.41145041,9.2309626 1.44559675,9.27660488 1.47962927,9.33351545 C1.62771057,9.54966179 1.74153171,9.7888 1.80982439,10.0505886 C1.82109268,10.1074992 1.84397073,10.1644098 1.84397073,10.2325886 C1.85535285,10.4148163 1.85535285,10.5968163 1.86673496,10.790426 L1.86673496,10.8701008 C0.990312195,9.75453984 0.546409756,8.45709268 0.546409756,6.97741789 C0.546409756,6.89762927 0.546409756,6.82945041 0.55779187,6.7610439 C0.55779187,6.68136911 0.55779187,6.5903122 0.569060163,6.5106374 C0.591938211,6.07811707 0.660230894,5.64559675 0.774052033,5.24722276 C0.808084553,5.22445854 0.864995122,5.22445854 0.921905691,5.21319024 C0.94478374,5.21319024 0.967434146,5.21319024 0.990312195,5.20169431 C1.10413333,5.15627967 1.22933659,5.09936911 1.36580813,5.0309626 C1.4227187,4.99681626 1.46836098,4.97405203 1.50250732,4.9286374 C1.53653984,4.90575935 1.5708,4.88299512 1.60483252,4.86023089 C1.62771057,4.82608455 1.66174309,4.81481626 1.69600325,4.79193821 C1.77556423,4.74640976 1.80982439,4.66684878 1.78706016,4.54153171 C1.78706016,4.50738537 1.78706016,4.49611707 1.79844228,4.47335285 C1.91226341,4.24571057 2.03746667,4.02933659 2.1625561,3.80169431 C2.19681626,3.74478374 2.23084878,3.69936911 2.28775935,3.67660488 C2.40158049,3.58554797 2.50401951,3.50587317 2.60657236,3.41481626 C2.6407187,3.3805561 2.67475122,3.34640976 2.7203935,3.30099512 C2.82283252,3.20982439 2.95930407,3.16440976 3.13003577,3.19844228 C3.27811707,3.22132033 3.35767805,3.17567805 3.34640976,3.03909268 C3.34640976,3.01644228 3.34640976,2.99367805 3.33502764,2.98218211 C3.31214959,2.91388943 3.27811707,2.84571057 3.25523902,2.77730407 C3.19832846,2.6407187 3.16429593,2.49275122 3.17567805,2.33351545 C3.17567805,2.18543415 3.10738537,2.09437724 2.98218211,2.08310894 C2.94803577,2.07161301 2.93665366,2.07161301 2.92527154,2.09437724 C2.82283252,2.18543415 2.69762927,2.25384065 2.56093008,2.29925528 C3.20982439,1.68473496 3.91551545,1.22945041 4.7008813,0.933401626 C4.68949919,0.967661789 4.68949919,0.990312195 4.68949919,1.02457236 C4.81470244,1.01307642 4.89426341,1.03584065 4.93990569,1.10413333 C4.95117398,1.12689756 4.96266992,1.14966179 4.95117398,1.17253984 C4.91714146,1.26348293 4.86023089,1.34327154 4.76917398,1.40018211 C4.72353171,1.42294634 4.68949919,1.45709268 4.66662114,1.50250732 C4.66662114,1.51400325 4.65535285,1.53676748 4.63258862,1.55941789 C4.5528,1.62782439 4.50738537,1.73014959 4.51876748,1.84397073 C4.53014959,1.91237724 4.57567805,1.93514146 4.66662114,1.93514146 C4.75779187,1.92364553 4.86023089,1.92364553 4.96266992,1.91237724 C4.98543415,1.91237724 5.01958049,1.88949919 5.0309626,1.84397073 C5.09925528,1.73014959 5.17881626,1.63909268 5.2926374,1.54803577 C5.47486504,1.41145041 5.67974309,1.33177561 5.89600325,1.3091252 C6.00982439,1.29762927 6.11226341,1.28636098 6.22608455,1.26348293 C6.26011707,1.25221463 6.30575935,1.22945041 6.33990569,1.20657236 C6.47649106,1.06998699 6.63584065,0.967661789 6.80657236,0.887986992 C6.81795447,0.876491057 6.8407187,0.876491057 6.86348293,0.876491057 C6.95453984,0.887986992 7.01145041,0.899255285 7.06836098,0.933401626 M11.9056455,2.03746667 C10.5512878,0.671613008 8.9008813,-0.0113138211 6.97730407,0.000182113821 C5.05372683,-0.0113138211 3.40332033,0.671613008 2.04873496,2.03746667 C0.682881301,3.40332033 -4.55284553e-05,5.04245854 -4.55284553e-05,6.97741789 C-4.55284553e-05,8.88949919 0.682881301,10.5399057 2.04873496,11.8944911 C3.40332033,13.2603447 5.05372683,13.9432715 6.97730407,13.9545398 C8.9008813,13.9432715 10.5512878,13.2603447 11.9056455,11.8944911 C13.2714992,10.5399057 13.954426,8.88949919 13.954426,6.97741789 C13.954426,5.04245854 13.2714992,3.40332033 11.9056455,2.03746667" id="Fill-1" fill="#DEDEDE" mask="url(#mask-2)"></path>
            </g>
        </g>
    </g>
</svg>